<?xml version="1.0" encoding="UTF-8" standalone="no"?>
<svg width="188px" height="60px" viewBox="0 0 188 60" version="1.1" xmlns="http://www.w3.org/2000/svg" xmlns:xlink="http://www.w3.org/1999/xlink">
    <!-- Generator: Sketch 3.8.3 (29802) - http://www.bohemiancoding.com/sketch -->
    <title>go-green</title>
    <desc>Created with Sketch.</desc>
    <defs>
        <path d="M20,9 L20,56.024189" id="path-1"></path>
    </defs>
    <g id="Draft-2" stroke="none" stroke-width="1" fill="none" fill-rule="evenodd">
        <g id="Desktop-HD-Copy" transform="translate(-620.000000, -3497.000000)">
            <g id="SECTION-4" transform="translate(524.000000, 3498.000000)">
                <g id="go-green" transform="translate(97.000000, 0.000000)">
                    <g id="Park-Icon" transform="translate(161.000000, 16.000000)" stroke="#FFFFFF" stroke-width="2">
                        <path d="M5,38 C5,38 5,33 0,33" id="Grass" stroke-linecap="round" stroke-linejoin="round"></path>
                        <path d="M9,38 C9,38 9,29 2,29" id="Grass" stroke-linecap="round" stroke-linejoin="round"></path>
                        <path d="M13,38 L13,13" id="Grass" stroke-linecap="round" stroke-linejoin="round"></path>
                        <path d="M13,8.5 C13,8.5 15,3.65685425 15,2 C15,0.343145751 14.6568542,-1 13,-1 C11.3431458,-1 11,0.343145751 11,2 C11,3.65685425 13,8.5 13,8.5 Z M15.1650635,9.75 C15.1650635,9.75 20.3593508,9.06047793 21.7942286,8.23205081 C23.2291065,7.40362368 24.220732,6.43487787 23.3923048,5 C22.5638777,3.56512213 21.2291065,3.93952207 19.7942286,4.76794919 C18.3593508,5.59637632 15.1650635,9.75 15.1650635,9.75 Z M15.1650635,12.25 C15.1650635,12.25 18.3593508,16.4036237 19.7942286,17.2320508 C21.2291065,18.0604779 22.5638777,18.4348779 23.3923048,17 C24.220732,15.5651221 23.2291065,14.5963763 21.7942286,13.7679492 C20.3593508,12.9395221 15.1650635,12.25 15.1650635,12.25 Z M13,13.5 C13,13.5 11,18.3431458 11,20 C11,21.6568542 11.3431458,23 13,23 C14.6568542,23 15,21.6568542 15,20 C15,18.3431458 13,13.5 13,13.5 Z M10.8349365,12.25 C10.8349365,12.25 5.64064924,12.9395221 4.20577137,13.7679492 C2.7708935,14.5963763 1.77926803,15.5651221 2.60769515,17 C3.43612228,18.4348779 4.7708935,18.0604779 6.20577137,17.2320508 C7.64064924,16.4036237 10.8349365,12.25 10.8349365,12.25 Z M10.8349365,9.75 C10.8349365,9.75 7.64064924,5.59637632 6.20577137,4.76794919 C4.7708935,3.93952207 3.43612228,3.56512213 2.60769515,5 C1.77926803,6.43487787 2.7708935,7.40362368 4.20577137,8.23205081 C5.64064924,9.06047793 10.8349365,9.75 10.8349365,9.75 Z" id="Oval-94" stroke-linejoin="round" transform="translate(13.000000, 11.000000) rotate(90.000000) translate(-13.000000, -11.000000) "></path>
                        <circle id="Oval-94" fill="#362A35" cx="13" cy="11" r="3"></circle>
                        <path d="M17,38 C17,38 17,32 21,32" id="Grass" stroke-linecap="round" stroke-linejoin="round"></path>
                        <path d="M21,38 C21,38 21,34 24,34" id="Grass" stroke-linecap="round" stroke-linejoin="round"></path>
                    </g>
                    <g id="Water-Icon" transform="translate(82.000000, 19.000000)" stroke="#FFFFFF" stroke-width="2" stroke-linecap="round" stroke-linejoin="round">
                        <path d="M0,5 C2,5 5,5 6.5,0 C8,5 10,5 12,5 C14,5 18,5 19.5,0 C21,5 24,5 26,5 C28,5 31,5 32.5,0 C34,5 37,5 39,5" id="Wave"></path>
                        <path d="M0,15 C2,15 5,15 6.5,10 C8,15 10,15 12,15 C14,15 18,15 19.5,10 C21,15 24,15 26,15 C28,15 31,15 32.5,10 C34,15 37,15 39,15" id="Wave"></path>
                        <path d="M0,25 C2,25 5,25 6.5,20 C8,25 10,25 12,25 C14,25 18,25 19.5,20 C21,25 24,25 26,25 C28,25 31,25 32.5,20 C34,25 37,25 39,25" id="Wave"></path>
                        <path d="M0,35 C2,35 5,35 6.5,30 C8,35 10,35 12,35 C14,35 18,35 19.5,30 C21,35 24,35 26,35 C28,35 31,35 32.5,30 C34,35 37,35 39,35" id="Wave"></path>
                    </g>
                    <g id="Tree-Icon">
                        <path d="M36.0877138,23.5065941 C37.0832807,21.9695626 37.6613465,20.136952 37.6613465,18.1693268 C37.6613465,13.8044515 34.8166483,10.1039912 30.8800766,8.82077022 C30.9588345,8.3951703 31,7.95638265 31,7.50798029 C31,3.54847045 27.7901831,0.338653525 23.8306732,0.338653525 C21.3687362,0.338653525 19.1966365,1.57959503 17.9057501,3.47010221 C17.3369076,3.3835405 16.754369,3.33865352 16.1613465,3.33865352 C9.81007185,3.33865352 4.66134648,8.4873789 4.66134648,14.8386535 C4.66134648,16.4568439 4.99557011,17.9969721 5.59875204,19.3937729 C2.61447648,21.4712322 0.661346475,24.9268539 0.661346475,28.8386535 C0.661346475,35.1899281 5.81007185,40.3386535 12.1613465,40.3386535 C14.5746402,40.3386535 16.8143133,39.595295 18.6638824,38.3250612 C20.7353162,41.3522383 24.2163553,43.3386535 28.1613465,43.3386535 C34.5126211,43.3386535 39.6613465,38.1899281 39.6613465,31.8386535 C39.6613465,28.5598301 38.2891572,25.6014986 36.0877138,23.5065941 Z" id="Combined-Shape" stroke="#FFFFFF" stroke-width="2"></path>
                        <g id="Line" stroke-linecap="round" stroke-linejoin="round">
                            <use stroke="#362A35" stroke-width="6" xlink:href="#path-1"></use>
                            <use stroke="#FFFFFF" stroke-width="2" xlink:href="#path-1"></use>
                        </g>
                        <path d="M20,31 L13.9792027,24.9792027" id="Line" stroke="#FFFFFF" stroke-width="2" stroke-linecap="round" stroke-linejoin="round"></path>
                        <path d="M20,17.5 L24,14" id="Line" stroke="#FFFFFF" stroke-width="2" stroke-linecap="round" stroke-linejoin="round"></path>
                        <path d="M20,34.5 L29.5,26.5" id="Line" stroke="#FFFFFF" stroke-width="2" stroke-linecap="round" stroke-linejoin="round"></path>
                    </g>
                </g>
            </g>
        </g>
    </g>
</svg>