<?xml version="1.0" encoding="UTF-8" standalone="no"?>
<svg width="1032px" height="310px" viewBox="0 0 1032 310" version="1.1" xmlns="http://www.w3.org/2000/svg" xmlns:xlink="http://www.w3.org/1999/xlink">
    <!-- Generator: Sketch 39 (31667) - http://www.bohemiancoding.com/sketch -->
    <title>line-chart-selection</title>
    <desc>Created with Sketch.</desc>
    <defs></defs>
    <g id="_Exports" stroke="none" stroke-width="1" fill="none" fill-rule="evenodd">
        <g id="line-chart-selection">
            <g id="Group" transform="translate(14.000000, 0.000000)">
                <g id="Sections" transform="translate(0.000000, 227.000000)">
                    <polyline id="Rectangle-22" stroke="#FFFFFF" stroke-width="2" opacity="0.5" points="0 83 0 0 0 0 695 0 695 83"></polyline>
                    <polyline id="Rectangle-22" stroke="#FFFFFF" stroke-width="2" opacity="0.5" points="722 83 722 0 722 0 798 0 798 83"></polyline>
                    <polyline id="Rectangle-22" stroke="#FFFFFF" stroke-width="2" opacity="0.5" points="825 83 825 0 825 0 901 0 901 83"></polyline>
                    <polyline id="Rectangle-22" stroke="#FFFFFF" stroke-width="2" opacity="0.5" points="928 83 928 0 1004 0 1004 83"></polyline>
                    <g id="Icons" transform="translate(7.000000, 7.000000)">
                        <g id="Ventilation" transform="translate(737.000000, 21.000000)" stroke="#FFFFFF">
                            <path d="M16,15.9999999 C16.0002866,15.9990192 17.8181818,9.77749754 17.8181818,6.22222222 C17.8181818,2.66666667 14.6363636,1.56215241e-12 12.3636364,0 C10.0909091,-1.56215241e-12 6,0.888888889 6,4.44444444 C6,8 10.1325071,7.82154835 11.4545455,9.77777778 C13.5737399,12.9135647 16,16 16,16 C16,16 14.1818182,22.2222222 14.1818182,25.7777778 C14.1818182,29.3333333 17.3636364,32 19.6363636,32 C21.9090909,32 26,31.1111111 26,27.5555556 C26,24 21.8674929,24.1784516 20.5454545,22.2222222 C18.4262831,19.0864694 16.0000527,16.000067 16,16 Z" id="Combined-Shape" stroke-width="1.77777778"></path>
                            <path d="M16,15.9999999 C16.0002866,15.9990192 17.8181818,9.77749754 17.8181818,6.22222222 C17.8181818,2.66666667 14.6363636,1.56215241e-12 12.3636364,0 C10.0909091,-1.56215241e-12 6,0.888888889 6,4.44444444 C6,8 10.1325071,7.82154835 11.4545455,9.77777778 C13.5737399,12.9135647 16,16 16,16 C16,16 14.1818182,22.2222222 14.1818182,25.7777778 C14.1818182,29.3333333 17.3636364,32 19.6363636,32 C21.9090909,32 26,31.1111111 26,27.5555556 C26,24 21.8674929,24.1784516 20.5454545,22.2222222 C18.4262831,19.0864694 16.0000527,16.000067 16,16 Z" id="Combined-Shape" stroke-width="1.77777778" transform="translate(16.000000, 16.000000) rotate(-90.000000) translate(-16.000000, -16.000000) "></path>
                            <circle id="Oval-51" stroke-width="2" fill="#362A35" cx="16" cy="16" r="4"></circle>
                        </g>
                        <g id="Solar-Blinds" transform="translate(840.000000, 22.000000)">
                            <rect id="Rectangle-26" stroke="#FFFFFF" stroke-width="2" x="0" y="0" width="32" height="28" rx="2"></rect>
                            <path d="M16.5,19.0630087 L16.5,17 L31,17 L31,15 L27,15 L27,13 L31,13 L31,11 L27,11 L27,9 L31,9 L31,7 L27,7 L27,5 L31,5 L31,3 L27,3 L27,1 L26,1 L26,3 L6,3 L6,1 L5,1 L5,3 L1,3 L1,5 L5,5 L5,7 L1,7 L1,9 L5,9 L5,11 L1,11 L1,13 L5,13 L5,15 L1,15 L1,17 L15.5,17 L15.5,19.0630087 C14.6373864,19.2850301 14,20.0680803 14,21 C14,22.1045695 14.8954305,23 16,23 C17.1045695,23 18,22.1045695 18,21 C18,20.0680803 17.3626136,19.2850301 16.5,19.0630087 Z M26,15 L6,15 L6,13 L26,13 L26,15 Z M26,5 L6,5 L6,7 L26,7 L26,5 Z M26,9 L6,9 L6,11 L26,11 L26,9 Z M16,22 C16.5522847,22 17,21.5522847 17,21 C17,20.4477153 16.5522847,20 16,20 C15.4477153,20 15,20.4477153 15,21 C15,21.5522847 15.4477153,22 16,22 Z" id="Combined-Shape" fill="#FFFFFF"></path>
                        </g>
                        <g id="Air-Conditioning-v2" transform="translate(944.000000, 23.000000)" stroke-width="2" stroke="#FFFFFF">
                            <g id="String" transform="translate(11.000000, 0.000000)">
                                <polyline id="End" stroke-linecap="round" points="0.5 27.5 4 24 7.5 27.5"></polyline>
                                <path d="M4,4 L4,24" id="Line"></path>
                                <polyline id="End" stroke-linecap="round" points="0.5 0.5 4 4 7.5 0.5"></polyline>
                            </g>
                            <g id="String" transform="translate(15.000000, 14.000000) rotate(-300.000000) translate(-15.000000, -14.000000) translate(11.000000, 0.000000)">
                                <polyline id="End" stroke-linecap="round" points="0.5 27.5 4 24 7.5 27.5"></polyline>
                                <path d="M4,4 L4,24" id="Line"></path>
                                <polyline id="End" stroke-linecap="round" points="0.5 0.5 4 4 7.5 0.5"></polyline>
                            </g>
                            <g id="String" transform="translate(15.000000, 14.000000) rotate(-60.000000) translate(-15.000000, -14.000000) translate(11.000000, 0.000000)">
                                <polyline id="End" stroke-linecap="round" points="0.5 27.5 4 24 7.5 27.5"></polyline>
                                <path d="M4,4 L4,24" id="Line"></path>
                                <polyline id="End" stroke-linecap="round" points="0.5 0.5 4 4 7.5 0.5"></polyline>
                            </g>
                        </g>
                        <g id="Clock-1" transform="translate(0.000000, 5.000000)">
                            <path d="M35.9725356,31 L40.9870679,31 C40.7356474,35.8487018 36.8487018,39.7356474 32,39.9870679 L32,34.9725356 C34.0858083,34.7419612 35.7419612,33.0858083 35.9725356,31 Z M27.0274644,31 L22.0129321,31 C22.0043462,30.8344194 22,30.6677173 22,30.5 C22,25.2532949 26.2532949,21 31.5,21 C33.4909062,21 35.3387725,21.6124262 36.8654865,22.659166 L34.3318361,27.0025667 C33.5584951,26.3756251 32.5731135,26 31.5,26 C29.0147186,26 27,28.0147186 27,30.5 C27,30.6690045 27.0093167,30.8358331 27.0274644,31 Z" id="Combined-Shape" fill="#FFFFFF"></path>
                            <path d="M31,42.495389 C31,42.2217932 31.2319336,42 31.5,42 C31.7761424,42 32,42.2157526 32,42.495389 L32,44.504611 C32,44.7782068 31.7680664,45 31.5,45 C31.2238576,45 31,44.7842474 31,44.504611 L31,42.495389 Z M31,16.495389 C31,16.2217932 31.2319336,16 31.5,16 C31.7761424,16 32,16.2157526 32,16.495389 L32,18.504611 C32,18.7782068 31.7680664,19 31.5,19 C31.2238576,19 31,18.7842474 31,18.504611 L31,16.495389 Z M17,30.5 C17,30.2238576 17.2157526,30 17.495389,30 L19.504611,30 C19.7782068,30 20,30.2319336 20,30.5 C20,30.7761424 19.7842474,31 19.504611,31 L17.495389,31 C17.2217932,31 17,30.7680664 17,30.5 Z M43,30.5 C43,30.2238576 43.2157526,30 43.495389,30 L45.504611,30 C45.7782068,30 46,30.2319336 46,30.5 C46,30.7761424 45.7842474,31 45.504611,31 L43.495389,31 C43.2217932,31 43,30.7680664 43,30.5 Z" id="Dashes" fill="#FFFFFF"></path>
                            <path d="M31,42.495389 C31,42.2217932 31.2319336,42 31.5,42 C31.7761424,42 32,42.2157526 32,42.495389 L32,44.504611 C32,44.7782068 31.7680664,45 31.5,45 C31.2238576,45 31,44.7842474 31,44.504611 L31,42.495389 Z M31,16.495389 C31,16.2217932 31.2319336,16 31.5,16 C31.7761424,16 32,16.2157526 32,16.495389 L32,18.504611 C32,18.7782068 31.7680664,19 31.5,19 C31.2238576,19 31,18.7842474 31,18.504611 L31,16.495389 Z M17,30.5 C17,30.2238576 17.2157526,30 17.495389,30 L19.504611,30 C19.7782068,30 20,30.2319336 20,30.5 C20,30.7761424 19.7842474,31 19.504611,31 L17.495389,31 C17.2217932,31 17,30.7680664 17,30.5 Z M43,30.5 C43,30.2238576 43.2157526,30 43.495389,30 L45.504611,30 C45.7782068,30 46,30.2319336 46,30.5 C46,30.7761424 45.7842474,31 45.504611,31 L43.495389,31 C43.2217932,31 43,30.7680664 43,30.5 Z" id="Dashes" fill="#FFFFFF" transform="translate(31.500000, 30.500000) rotate(-300.000000) translate(-31.500000, -30.500000) "></path>
                            <path d="M31,42.495389 C31,42.2217932 31.2319336,42 31.5,42 C31.7761424,42 32,42.2157526 32,42.495389 L32,44.504611 C32,44.7782068 31.7680664,45 31.5,45 C31.2238576,45 31,44.7842474 31,44.504611 L31,42.495389 Z M31,16.495389 C31,16.2217932 31.2319336,16 31.5,16 C31.7761424,16 32,16.2157526 32,16.495389 L32,18.504611 C32,18.7782068 31.7680664,19 31.5,19 C31.2238576,19 31,18.7842474 31,18.504611 L31,16.495389 Z M17,30.5 C17,30.2238576 17.2157526,30 17.495389,30 L19.504611,30 C19.7782068,30 20,30.2319336 20,30.5 C20,30.7761424 19.7842474,31 19.504611,31 L17.495389,31 C17.2217932,31 17,30.7680664 17,30.5 Z M43,30.5 C43,30.2238576 43.2157526,30 43.495389,30 L45.504611,30 C45.7782068,30 46,30.2319336 46,30.5 C46,30.7761424 45.7842474,31 45.504611,31 L43.495389,31 C43.2217932,31 43,30.7680664 43,30.5 Z" id="Dashes" fill="#FFFFFF" transform="translate(31.500000, 30.500000) rotate(30.000000) translate(-31.500000, -30.500000) "></path>
                            <circle id="Base" stroke="#FFFFFF" stroke-width="2" cx="31.5" cy="30.5" r="14.5"></circle>
                            <path d="M43.4722545,12.0398007 C40.0268037,9.80068793 35.9152978,8.5 31.5,8.5 C19.3497355,8.5 9.5,18.3497355 9.5,30.5 M31.5,52.5 L31.5,52.5 C43.6502645,52.5 53.5,42.6502645 53.5,30.5" id="Base" stroke="#FFFFFF" stroke-dasharray="4"></path>
                            <text id="9" font-family="WorkSans-Regular, Work Sans" font-size="10" font-weight="normal" letter-spacing="0.320000023" fill="#FFFFFF">
                                <tspan x="0" y="34">9</tspan>
                            </text>
                            <text id="13" font-family="WorkSans-Regular, Work Sans" font-size="10" font-weight="normal" letter-spacing="0.320000023" fill="#FFFFFF">
                                <tspan x="45" y="9">13</tspan>
                            </text>
                            <text id="15" font-family="WorkSans-Regular, Work Sans" font-size="10" font-weight="normal" letter-spacing="0.320000023" fill="#FFFFFF">
                                <tspan x="57" y="33">15</tspan>
                            </text>
                            <text id="18" font-family="WorkSans-Regular, Work Sans" font-size="10" font-weight="normal" letter-spacing="0.320000023" fill="#FFFFFF">
                                <tspan x="25" y="64">18</tspan>
                            </text>
                        </g>
                        <g id="Clock-2" transform="translate(103.000000, 6.000000)">
                            <path d="M29.7544969,33.6489425 L27.1189514,37.931704 C28.4298312,38.6142185 29.9198636,39 31.5,39 C35.0440903,39 38.1349024,37.0592851 39.7676895,34.182602 L35.3623513,31.8104969 C34.5760375,33.1221175 33.140539,34 31.5,34 C30.8810254,34 30.2912393,33.8750291 29.7544969,33.6489425 Z M34.3318361,26.0025667 L36.8654865,21.659166 C35.3387725,20.6124262 33.4909062,20 31.5,20 C26.2532949,20 22,24.2532949 22,29.5 C22,29.6677173 22.0043462,29.8344194 22.0129321,30 L27.0274644,30 C27.0093167,29.8358331 27,29.6690045 27,29.5 C27,27.0147186 29.0147186,25 31.5,25 C32.5731135,25 33.5584951,25.3756251 34.3318361,26.0025667 Z" id="Combined-Shape" fill="#FFFFFF"></path>
                            <path d="M31,41.495389 C31,41.2217932 31.2319336,41 31.5,41 C31.7761424,41 32,41.2157526 32,41.495389 L32,43.504611 C32,43.7782068 31.7680664,44 31.5,44 C31.2238576,44 31,43.7842474 31,43.504611 L31,41.495389 Z M31,15.495389 C31,15.2217932 31.2319336,15 31.5,15 C31.7761424,15 32,15.2157526 32,15.495389 L32,17.504611 C32,17.7782068 31.7680664,18 31.5,18 C31.2238576,18 31,17.7842474 31,17.504611 L31,15.495389 Z M17,29.5 C17,29.2238576 17.2157526,29 17.495389,29 L19.504611,29 C19.7782068,29 20,29.2319336 20,29.5 C20,29.7761424 19.7842474,30 19.504611,30 L17.495389,30 C17.2217932,30 17,29.7680664 17,29.5 Z M43,29.5 C43,29.2238576 43.2157526,29 43.495389,29 L45.504611,29 C45.7782068,29 46,29.2319336 46,29.5 C46,29.7761424 45.7842474,30 45.504611,30 L43.495389,30 C43.2217932,30 43,29.7680664 43,29.5 Z" id="Dashes" fill="#FFFFFF"></path>
                            <path d="M31,41.495389 C31,41.2217932 31.2319336,41 31.5,41 C31.7761424,41 32,41.2157526 32,41.495389 L32,43.504611 C32,43.7782068 31.7680664,44 31.5,44 C31.2238576,44 31,43.7842474 31,43.504611 L31,41.495389 Z M31,15.495389 C31,15.2217932 31.2319336,15 31.5,15 C31.7761424,15 32,15.2157526 32,15.495389 L32,17.504611 C32,17.7782068 31.7680664,18 31.5,18 C31.2238576,18 31,17.7842474 31,17.504611 L31,15.495389 Z M17,29.5 C17,29.2238576 17.2157526,29 17.495389,29 L19.504611,29 C19.7782068,29 20,29.2319336 20,29.5 C20,29.7761424 19.7842474,30 19.504611,30 L17.495389,30 C17.2217932,30 17,29.7680664 17,29.5 Z M43,29.5 C43,29.2238576 43.2157526,29 43.495389,29 L45.504611,29 C45.7782068,29 46,29.2319336 46,29.5 C46,29.7761424 45.7842474,30 45.504611,30 L43.495389,30 C43.2217932,30 43,29.7680664 43,29.5 Z" id="Dashes" fill="#FFFFFF" transform="translate(31.500000, 29.500000) rotate(-300.000000) translate(-31.500000, -29.500000) "></path>
                            <path d="M31,41.495389 C31,41.2217932 31.2319336,41 31.5,41 C31.7761424,41 32,41.2157526 32,41.495389 L32,43.504611 C32,43.7782068 31.7680664,44 31.5,44 C31.2238576,44 31,43.7842474 31,43.504611 L31,41.495389 Z M31,15.495389 C31,15.2217932 31.2319336,15 31.5,15 C31.7761424,15 32,15.2157526 32,15.495389 L32,17.504611 C32,17.7782068 31.7680664,18 31.5,18 C31.2238576,18 31,17.7842474 31,17.504611 L31,15.495389 Z M17,29.5 C17,29.2238576 17.2157526,29 17.495389,29 L19.504611,29 C19.7782068,29 20,29.2319336 20,29.5 C20,29.7761424 19.7842474,30 19.504611,30 L17.495389,30 C17.2217932,30 17,29.7680664 17,29.5 Z M43,29.5 C43,29.2238576 43.2157526,29 43.495389,29 L45.504611,29 C45.7782068,29 46,29.2319336 46,29.5 C46,29.7761424 45.7842474,30 45.504611,30 L43.495389,30 C43.2217932,30 43,29.7680664 43,29.5 Z" id="Dashes" fill="#FFFFFF" transform="translate(31.500000, 29.500000) rotate(30.000000) translate(-31.500000, -29.500000) "></path>
                            <circle id="Base" stroke="#FFFFFF" stroke-width="2" cx="31.5" cy="29.5" r="14.5"></circle>
                            <path d="M43.4722545,11.0398007 C40.0268037,8.80068793 35.9152978,7.5 31.5,7.5 C19.3497355,7.5 9.5,17.3497355 9.5,29.5 M20.5,48.5525589 L20.5,48.5525589 C31.0224377,54.6276911 44.4774266,51.0224377 50.5525589,40.5" id="Base" stroke="#FFFFFF" stroke-dasharray="4"></path>
                            <text id="9" font-family="WorkSans-Regular, Work Sans" font-size="10" font-weight="normal" letter-spacing="0.320000023" fill="#FFFFFF">
                                <tspan x="0" y="33">9</tspan>
                            </text>
                            <text id="13" font-family="WorkSans-Regular, Work Sans" font-size="10" font-weight="normal" letter-spacing="0.320000023" fill="#FFFFFF">
                                <tspan x="44" y="9">13</tspan>
                            </text>
                            <text id="16" font-family="WorkSans-Regular, Work Sans" font-size="10" font-weight="normal" letter-spacing="0.320000023" fill="#FFFFFF">
                                <tspan x="54" y="46">16</tspan>
                            </text>
                            <text id="19" font-family="WorkSans-Regular, Work Sans" font-size="10" font-weight="normal" letter-spacing="0.320000023" fill="#FFFFFF">
                                <tspan x="8" y="58">19</tspan>
                            </text>
                        </g>
                        <g id="Clock-3" transform="translate(203.000000, 6.000000)">
                            <path d="M30.8197113,32.0901444 L26.3228191,34.3385904 C27.9776499,37.1292207 31.020353,39 34.5,39 C36.2951084,39 37.9739283,38.5021098 39.4058985,37.6368908 L36.9058873,33.3035381 C36.2100316,33.7446167 35.3848398,34 34.5,34 C32.9790051,34 31.6342573,33.2453965 30.8197113,32.0901444 Z M37.3318361,26.0025667 L39.8654865,21.659166 C38.3387725,20.6124262 36.4909062,20 34.5,20 C29.2532949,20 25,24.2532949 25,29.5 C25,29.6677173 25.0043462,29.8344194 25.0129321,30 L30.0274644,30 C30.0093167,29.8358331 30,29.6690045 30,29.5 C30,27.0147186 32.0147186,25 34.5,25 C35.5731135,25 36.5584951,25.3756251 37.3318361,26.0025667 Z" id="Combined-Shape" fill="#FFFFFF"></path>
                            <path d="M34,41.495389 C34,41.2217932 34.2319336,41 34.5,41 C34.7761424,41 35,41.2157526 35,41.495389 L35,43.504611 C35,43.7782068 34.7680664,44 34.5,44 C34.2238576,44 34,43.7842474 34,43.504611 L34,41.495389 Z M34,15.495389 C34,15.2217932 34.2319336,15 34.5,15 C34.7761424,15 35,15.2157526 35,15.495389 L35,17.504611 C35,17.7782068 34.7680664,18 34.5,18 C34.2238576,18 34,17.7842474 34,17.504611 L34,15.495389 Z M20,29.5 C20,29.2238576 20.2157526,29 20.495389,29 L22.504611,29 C22.7782068,29 23,29.2319336 23,29.5 C23,29.7761424 22.7842474,30 22.504611,30 L20.495389,30 C20.2217932,30 20,29.7680664 20,29.5 Z M46,29.5 C46,29.2238576 46.2157526,29 46.495389,29 L48.504611,29 C48.7782068,29 49,29.2319336 49,29.5 C49,29.7761424 48.7842474,30 48.504611,30 L46.495389,30 C46.2217932,30 46,29.7680664 46,29.5 Z" id="Dashes" fill="#FFFFFF"></path>
                            <path d="M34,41.495389 C34,41.2217932 34.2319336,41 34.5,41 C34.7761424,41 35,41.2157526 35,41.495389 L35,43.504611 C35,43.7782068 34.7680664,44 34.5,44 C34.2238576,44 34,43.7842474 34,43.504611 L34,41.495389 Z M34,15.495389 C34,15.2217932 34.2319336,15 34.5,15 C34.7761424,15 35,15.2157526 35,15.495389 L35,17.504611 C35,17.7782068 34.7680664,18 34.5,18 C34.2238576,18 34,17.7842474 34,17.504611 L34,15.495389 Z M20,29.5 C20,29.2238576 20.2157526,29 20.495389,29 L22.504611,29 C22.7782068,29 23,29.2319336 23,29.5 C23,29.7761424 22.7842474,30 22.504611,30 L20.495389,30 C20.2217932,30 20,29.7680664 20,29.5 Z M46,29.5 C46,29.2238576 46.2157526,29 46.495389,29 L48.504611,29 C48.7782068,29 49,29.2319336 49,29.5 C49,29.7761424 48.7842474,30 48.504611,30 L46.495389,30 C46.2217932,30 46,29.7680664 46,29.5 Z" id="Dashes" fill="#FFFFFF" transform="translate(34.500000, 29.500000) rotate(-300.000000) translate(-34.500000, -29.500000) "></path>
                            <path d="M34,41.495389 C34,41.2217932 34.2319336,41 34.5,41 C34.7761424,41 35,41.2157526 35,41.495389 L35,43.504611 C35,43.7782068 34.7680664,44 34.5,44 C34.2238576,44 34,43.7842474 34,43.504611 L34,41.495389 Z M34,15.495389 C34,15.2217932 34.2319336,15 34.5,15 C34.7761424,15 35,15.2157526 35,15.495389 L35,17.504611 C35,17.7782068 34.7680664,18 34.5,18 C34.2238576,18 34,17.7842474 34,17.504611 L34,15.495389 Z M20,29.5 C20,29.2238576 20.2157526,29 20.495389,29 L22.504611,29 C22.7782068,29 23,29.2319336 23,29.5 C23,29.7761424 22.7842474,30 22.504611,30 L20.495389,30 C20.2217932,30 20,29.7680664 20,29.5 Z M46,29.5 C46,29.2238576 46.2157526,29 46.495389,29 L48.504611,29 C48.7782068,29 49,29.2319336 49,29.5 C49,29.7761424 48.7842474,30 48.504611,30 L46.495389,30 C46.2217932,30 46,29.7680664 46,29.5 Z" id="Dashes" fill="#FFFFFF" transform="translate(34.500000, 29.500000) rotate(30.000000) translate(-34.500000, -29.500000) "></path>
                            <circle id="Base" stroke="#FFFFFF" stroke-width="2" cx="34.5" cy="29.5" r="14.5"></circle>
                            <path d="M46.4722545,11.0398007 C43.0268037,8.80068793 38.9152978,7.5 34.5,7.5 C22.3497355,7.5 12.5,17.3497355 12.5,29.5 M15.4474411,40.5 L15.4474411,40.5 C21.5225734,51.0224377 34.9775623,54.6276911 45.5,48.5525589" id="Base" stroke="#FFFFFF" stroke-dasharray="4"></path>
                            <text id="9" font-family="WorkSans-Regular, Work Sans" font-size="10" font-weight="normal" letter-spacing="0.320000023" fill="#FFFFFF">
                                <tspan x="3" y="33">9</tspan>
                            </text>
                            <text id="13" font-family="WorkSans-Regular, Work Sans" font-size="10" font-weight="normal" letter-spacing="0.320000023" fill="#FFFFFF">
                                <tspan x="48" y="9">13</tspan>
                            </text>
                            <text id="17" font-family="WorkSans-Regular, Work Sans" font-size="10" font-weight="normal" letter-spacing="0.320000023" fill="#FFFFFF">
                                <tspan x="47" y="59">17</tspan>
                            </text>
                            <text id="20" font-family="WorkSans-Regular, Work Sans" font-size="10" font-weight="normal" letter-spacing="0.320000023" fill="#FFFFFF">
                                <tspan x="0" y="48">20</tspan>
                            </text>
                        </g>
                        <g id="Clock-4" transform="translate(311.000000, 0.000000)">
                            <path d="M33.6185806,33.6841084 L37.8542425,30.9732848 C38.5849577,32.3190053 39,33.8610335 39,35.5 C39,38.9919293 37.1159906,42.0438247 34.3090053,43.6946524 L31.8644976,39.32946 C33.1461571,38.5364166 34,37.1179212 34,35.5 C34,34.8538492 33.8638144,34.2395063 33.6185806,33.6841084 Z M25.8601593,38.146584 L21.3966546,40.4609939 C20.5107718,39.0170669 20,37.318182 20,35.5 C20,30.2532949 24.2532949,26 29.5,26 C29.6677173,26 29.8344194,26.0043462 30,26.0129321 L30,31.0274644 C29.8358331,31.0093167 29.6690045,31 29.5,31 C27.0147186,31 25,33.0147186 25,35.5 C25,36.489198 25.3191756,37.4038485 25.8601593,38.146584 Z" id="Combined-Shape" fill="#FFFFFF"></path>
                            <path d="M29,47.495389 C29,47.2217932 29.2319336,47 29.5,47 C29.7761424,47 30,47.2157526 30,47.495389 L30,49.504611 C30,49.7782068 29.7680664,50 29.5,50 C29.2238576,50 29,49.7842474 29,49.504611 L29,47.495389 Z M29,21.495389 C29,21.2217932 29.2319336,21 29.5,21 C29.7761424,21 30,21.2157526 30,21.495389 L30,23.504611 C30,23.7782068 29.7680664,24 29.5,24 C29.2238576,24 29,23.7842474 29,23.504611 L29,21.495389 Z M15,35.5 C15,35.2238576 15.2157526,35 15.495389,35 L17.504611,35 C17.7782068,35 18,35.2319336 18,35.5 C18,35.7761424 17.7842474,36 17.504611,36 L15.495389,36 C15.2217932,36 15,35.7680664 15,35.5 Z M41,35.5 C41,35.2238576 41.2157526,35 41.495389,35 L43.504611,35 C43.7782068,35 44,35.2319336 44,35.5 C44,35.7761424 43.7842474,36 43.504611,36 L41.495389,36 C41.2217932,36 41,35.7680664 41,35.5 Z" id="Dashes" fill="#FFFFFF"></path>
                            <path d="M29,47.495389 C29,47.2217932 29.2319336,47 29.5,47 C29.7761424,47 30,47.2157526 30,47.495389 L30,49.504611 C30,49.7782068 29.7680664,50 29.5,50 C29.2238576,50 29,49.7842474 29,49.504611 L29,47.495389 Z M29,21.495389 C29,21.2217932 29.2319336,21 29.5,21 C29.7761424,21 30,21.2157526 30,21.495389 L30,23.504611 C30,23.7782068 29.7680664,24 29.5,24 C29.2238576,24 29,23.7842474 29,23.504611 L29,21.495389 Z M15,35.5 C15,35.2238576 15.2157526,35 15.495389,35 L17.504611,35 C17.7782068,35 18,35.2319336 18,35.5 C18,35.7761424 17.7842474,36 17.504611,36 L15.495389,36 C15.2217932,36 15,35.7680664 15,35.5 Z M41,35.5 C41,35.2238576 41.2157526,35 41.495389,35 L43.504611,35 C43.7782068,35 44,35.2319336 44,35.5 C44,35.7761424 43.7842474,36 43.504611,36 L41.495389,36 C41.2217932,36 41,35.7680664 41,35.5 Z" id="Dashes" fill="#FFFFFF" transform="translate(29.500000, 35.500000) rotate(-300.000000) translate(-29.500000, -35.500000) "></path>
                            <path d="M29,47.495389 C29,47.2217932 29.2319336,47 29.5,47 C29.7761424,47 30,47.2157526 30,47.495389 L30,49.504611 C30,49.7782068 29.7680664,50 29.5,50 C29.2238576,50 29,49.7842474 29,49.504611 L29,47.495389 Z M29,21.495389 C29,21.2217932 29.2319336,21 29.5,21 C29.7761424,21 30,21.2157526 30,21.495389 L30,23.504611 C30,23.7782068 29.7680664,24 29.5,24 C29.2238576,24 29,23.7842474 29,23.504611 L29,21.495389 Z M15,35.5 C15,35.2238576 15.2157526,35 15.495389,35 L17.504611,35 C17.7782068,35 18,35.2319336 18,35.5 C18,35.7761424 17.7842474,36 17.504611,36 L15.495389,36 C15.2217932,36 15,35.7680664 15,35.5 Z M41,35.5 C41,35.2238576 41.2157526,35 41.495389,35 L43.504611,35 C43.7782068,35 44,35.2319336 44,35.5 C44,35.7761424 43.7842474,36 43.504611,36 L41.495389,36 C41.2217932,36 41,35.7680664 41,35.5 Z" id="Dashes" fill="#FFFFFF" transform="translate(29.500000, 35.500000) rotate(30.000000) translate(-29.500000, -35.500000) "></path>
                            <circle id="Base" stroke="#FFFFFF" stroke-width="2" cx="29.5" cy="35.5" r="14.5"></circle>
                            <path d="M28.9655888,13.5023374 C25.4007936,13.58576 21.8056844,14.5389033 18.5,16.4474411 C7.97756228,22.5225734 4.37230887,35.9775623 10.4474411,46.5 M40.5,54.5525589 L40.5,54.5525589 C51.0224377,48.4774266 54.6276911,35.0224377 48.5525589,24.5" id="Base" stroke="#FFFFFF" stroke-dasharray="4"></path>
                            <text id="8" font-family="WorkSans-Regular, Work Sans" font-size="10" font-weight="normal" letter-spacing="0.320000023" fill="#FFFFFF">
                                <tspan x="0" y="51">8</tspan>
                            </text>
                            <text id="12" font-family="WorkSans-Regular, Work Sans" font-size="10" font-weight="normal" letter-spacing="0.320000023" fill="#FFFFFF">
                                <tspan x="25" y="9">12</tspan>
                            </text>
                            <text id="14" font-family="WorkSans-Regular, Work Sans" font-size="10" font-weight="normal" letter-spacing="0.320000023" fill="#FFFFFF">
                                <tspan x="50" y="23">14</tspan>
                            </text>
                            <text id="17" font-family="WorkSans-Regular, Work Sans" font-size="10" font-weight="normal" letter-spacing="0.320000023" fill="#FFFFFF">
                                <tspan x="39" y="65">17</tspan>
                            </text>
                        </g>
                        <g id="Clock-5" transform="translate(421.000000, 0.000000)">
                            <path d="M26.9725356,36 L31.9870679,36 C31.816893,39.2818621 29.9811711,42.1231139 27.3090053,43.6946524 L24.8644976,39.32946 C26.0122777,38.6192562 26.8169507,37.4074425 26.9725356,36 Z M20.6841084,39.6185806 L17.9732848,43.8542425 C15.0110474,42.2457719 13,39.1077386 13,35.5 C13,30.2532949 17.2532949,26 22.5,26 C22.6677173,26 22.8344194,26.0043462 23,26.0129321 L23,31.0274644 C22.8358331,31.0093167 22.6690045,31 22.5,31 C20.0147186,31 18,33.0147186 18,35.5 C18,37.3391306 19.1032868,38.9205747 20.6841084,39.6185806 Z" id="Combined-Shape" fill="#FFFFFF"></path>
                            <path d="M22,47.495389 C22,47.2217932 22.2319336,47 22.5,47 C22.7761424,47 23,47.2157526 23,47.495389 L23,49.504611 C23,49.7782068 22.7680664,50 22.5,50 C22.2238576,50 22,49.7842474 22,49.504611 L22,47.495389 Z M22,21.495389 C22,21.2217932 22.2319336,21 22.5,21 C22.7761424,21 23,21.2157526 23,21.495389 L23,23.504611 C23,23.7782068 22.7680664,24 22.5,24 C22.2238576,24 22,23.7842474 22,23.504611 L22,21.495389 Z M8,35.5 C8,35.2238576 8.2157526,35 8.49538898,35 L10.504611,35 C10.7782068,35 11,35.2319336 11,35.5 C11,35.7761424 10.7842474,36 10.504611,36 L8.49538898,36 C8.2217932,36 8,35.7680664 8,35.5 Z M34,35.5 C34,35.2238576 34.2157526,35 34.495389,35 L36.504611,35 C36.7782068,35 37,35.2319336 37,35.5 C37,35.7761424 36.7842474,36 36.504611,36 L34.495389,36 C34.2217932,36 34,35.7680664 34,35.5 Z" id="Dashes" fill="#FFFFFF"></path>
                            <path d="M22,47.495389 C22,47.2217932 22.2319336,47 22.5,47 C22.7761424,47 23,47.2157526 23,47.495389 L23,49.504611 C23,49.7782068 22.7680664,50 22.5,50 C22.2238576,50 22,49.7842474 22,49.504611 L22,47.495389 Z M22,21.495389 C22,21.2217932 22.2319336,21 22.5,21 C22.7761424,21 23,21.2157526 23,21.495389 L23,23.504611 C23,23.7782068 22.7680664,24 22.5,24 C22.2238576,24 22,23.7842474 22,23.504611 L22,21.495389 Z M8,35.5 C8,35.2238576 8.2157526,35 8.49538898,35 L10.504611,35 C10.7782068,35 11,35.2319336 11,35.5 C11,35.7761424 10.7842474,36 10.504611,36 L8.49538898,36 C8.2217932,36 8,35.7680664 8,35.5 Z M34,35.5 C34,35.2238576 34.2157526,35 34.495389,35 L36.504611,35 C36.7782068,35 37,35.2319336 37,35.5 C37,35.7761424 36.7842474,36 36.504611,36 L34.495389,36 C34.2217932,36 34,35.7680664 34,35.5 Z" id="Dashes" fill="#FFFFFF" transform="translate(22.500000, 35.500000) rotate(-300.000000) translate(-22.500000, -35.500000) "></path>
                            <path d="M22,47.495389 C22,47.2217932 22.2319336,47 22.5,47 C22.7761424,47 23,47.2157526 23,47.495389 L23,49.504611 C23,49.7782068 22.7680664,50 22.5,50 C22.2238576,50 22,49.7842474 22,49.504611 L22,47.495389 Z M22,21.495389 C22,21.2217932 22.2319336,21 22.5,21 C22.7761424,21 23,21.2157526 23,21.495389 L23,23.504611 C23,23.7782068 22.7680664,24 22.5,24 C22.2238576,24 22,23.7842474 22,23.504611 L22,21.495389 Z M8,35.5 C8,35.2238576 8.2157526,35 8.49538898,35 L10.504611,35 C10.7782068,35 11,35.2319336 11,35.5 C11,35.7761424 10.7842474,36 10.504611,36 L8.49538898,36 C8.2217932,36 8,35.7680664 8,35.5 Z M34,35.5 C34,35.2238576 34.2157526,35 34.495389,35 L36.504611,35 C36.7782068,35 37,35.2319336 37,35.5 C37,35.7761424 36.7842474,36 36.504611,36 L34.495389,36 C34.2217932,36 34,35.7680664 34,35.5 Z" id="Dashes" fill="#FFFFFF" transform="translate(22.500000, 35.500000) rotate(30.000000) translate(-22.500000, -35.500000) "></path>
                            <circle id="Base" stroke="#FFFFFF" stroke-width="2" cx="22.5" cy="35.5" r="14.5"></circle>
                            <path d="M22.5,13.5 C10.3497355,13.5 0.5,23.3497355 0.5,35.5 C0.5,43.6179388 4.89688042,50.7089312 11.4390921,54.521428 L11.4390921,54.521428 M33.5137099,54.5488543 C40.0819637,50.7430032 44.5,43.6374454 44.5,35.5" id="Oval-82" stroke="#FFFFFF" stroke-dasharray="4"></path>
                            <text id="7" font-family="WorkSans-Regular, Work Sans" font-size="10" font-weight="normal" letter-spacing="0.320000023" fill="#FFFFFF">
                                <tspan x="7" y="65">7</tspan>
                            </text>
                            <text id="12" font-family="WorkSans-Regular, Work Sans" font-size="10" font-weight="normal" letter-spacing="0.320000023" fill="#FFFFFF">
                                <tspan x="18" y="9">12</tspan>
                            </text>
                            <text id="15" font-family="WorkSans-Regular, Work Sans" font-size="10" font-weight="normal" letter-spacing="0.320000023" fill="#FFFFFF">
                                <tspan x="46" y="39">15</tspan>
                            </text>
                            <text id="17" font-family="WorkSans-Regular, Work Sans" font-size="10" font-weight="normal" letter-spacing="0.320000023" fill="#FFFFFF">
                                <tspan x="32" y="65">17</tspan>
                            </text>
                        </g>
                        <g id="Clock-6" transform="translate(524.000000, 6.000000)">
                            <path d="M25.0901444,25.8197113 L27.3385904,21.3228191 C25.9214336,20.4824517 24.2670581,20 22.5,20 C17.2532949,20 13,24.2532949 13,29.5 C13,34.7467051 17.2532949,39 22.5,39 C22.6677173,39 22.8344194,38.9956538 23,38.9870679 L23,33.9725356 C22.8358331,33.9906833 22.6690045,34 22.5,34 C20.0147186,34 18,31.9852814 18,29.5 C18,27.0147186 20.0147186,25 22.5,25 C23.4642865,25 24.3577329,25.3033021 25.0901444,25.8197113 Z" id="Combined-Shape" fill="#FFFFFF"></path>
                            <path d="M22,41.495389 C22,41.2217932 22.2319336,41 22.5,41 C22.7761424,41 23,41.2157526 23,41.495389 L23,43.504611 C23,43.7782068 22.7680664,44 22.5,44 C22.2238576,44 22,43.7842474 22,43.504611 L22,41.495389 Z M22,15.495389 C22,15.2217932 22.2319336,15 22.5,15 C22.7761424,15 23,15.2157526 23,15.495389 L23,17.504611 C23,17.7782068 22.7680664,18 22.5,18 C22.2238576,18 22,17.7842474 22,17.504611 L22,15.495389 Z M8,29.5 C8,29.2238576 8.2157526,29 8.49538898,29 L10.504611,29 C10.7782068,29 11,29.2319336 11,29.5 C11,29.7761424 10.7842474,30 10.504611,30 L8.49538898,30 C8.2217932,30 8,29.7680664 8,29.5 Z M34,29.5 C34,29.2238576 34.2157526,29 34.495389,29 L36.504611,29 C36.7782068,29 37,29.2319336 37,29.5 C37,29.7761424 36.7842474,30 36.504611,30 L34.495389,30 C34.2217932,30 34,29.7680664 34,29.5 Z" id="Dashes" fill="#FFFFFF"></path>
                            <path d="M22,41.495389 C22,41.2217932 22.2319336,41 22.5,41 C22.7761424,41 23,41.2157526 23,41.495389 L23,43.504611 C23,43.7782068 22.7680664,44 22.5,44 C22.2238576,44 22,43.7842474 22,43.504611 L22,41.495389 Z M22,15.495389 C22,15.2217932 22.2319336,15 22.5,15 C22.7761424,15 23,15.2157526 23,15.495389 L23,17.504611 C23,17.7782068 22.7680664,18 22.5,18 C22.2238576,18 22,17.7842474 22,17.504611 L22,15.495389 Z M8,29.5 C8,29.2238576 8.2157526,29 8.49538898,29 L10.504611,29 C10.7782068,29 11,29.2319336 11,29.5 C11,29.7761424 10.7842474,30 10.504611,30 L8.49538898,30 C8.2217932,30 8,29.7680664 8,29.5 Z M34,29.5 C34,29.2238576 34.2157526,29 34.495389,29 L36.504611,29 C36.7782068,29 37,29.2319336 37,29.5 C37,29.7761424 36.7842474,30 36.504611,30 L34.495389,30 C34.2217932,30 34,29.7680664 34,29.5 Z" id="Dashes" fill="#FFFFFF" transform="translate(22.500000, 29.500000) rotate(-300.000000) translate(-22.500000, -29.500000) "></path>
                            <path d="M22,41.495389 C22,41.2217932 22.2319336,41 22.5,41 C22.7761424,41 23,41.2157526 23,41.495389 L23,43.504611 C23,43.7782068 22.7680664,44 22.5,44 C22.2238576,44 22,43.7842474 22,43.504611 L22,41.495389 Z M22,15.495389 C22,15.2217932 22.2319336,15 22.5,15 C22.7761424,15 23,15.2157526 23,15.495389 L23,17.504611 C23,17.7782068 22.7680664,18 22.5,18 C22.2238576,18 22,17.7842474 22,17.504611 L22,15.495389 Z M8,29.5 C8,29.2238576 8.2157526,29 8.49538898,29 L10.504611,29 C10.7782068,29 11,29.2319336 11,29.5 C11,29.7761424 10.7842474,30 10.504611,30 L8.49538898,30 C8.2217932,30 8,29.7680664 8,29.5 Z M34,29.5 C34,29.2238576 34.2157526,29 34.495389,29 L36.504611,29 C36.7782068,29 37,29.2319336 37,29.5 C37,29.7761424 36.7842474,30 36.504611,30 L34.495389,30 C34.2217932,30 34,29.7680664 34,29.5 Z" id="Dashes" fill="#FFFFFF" transform="translate(22.500000, 29.500000) rotate(30.000000) translate(-22.500000, -29.500000) "></path>
                            <circle id="Base" stroke="#FFFFFF" stroke-width="2" cx="22.5" cy="29.5" r="14.5"></circle>
                            <path d="M33.532631,10.4621217 C30.2893606,8.57855544 26.5206353,7.5 22.5,7.5 C10.3497355,7.5 0.5,17.3497355 0.5,29.5 C0.5,41.6502645 10.3497355,51.5 22.5,51.5 L22.5,51.5" id="Oval-85" stroke="#FFFFFF" stroke-dasharray="4"></path>
                            <text id="6" font-family="WorkSans-Regular, Work Sans" font-size="10" font-weight="normal" letter-spacing="0.320000023" fill="#FFFFFF">
                                <tspan x="20" y="61">6</tspan>
                            </text>
                            <text id="13" font-family="WorkSans-Regular, Work Sans" font-size="10" font-weight="normal" letter-spacing="0.320000023" fill="#FFFFFF">
                                <tspan x="35" y="9">13</tspan>
                            </text>
                        </g>
                        <g id="Clock-7" transform="translate(616.000000, 4.000000)">
                            <path d="M31.6841084,35.6185806 L28.9732848,39.8542425 C30.3190053,40.5849577 31.8610335,41 33.5,41 C35.3102359,41 37.002215,40.493683 38.4420477,39.6149389 L35.9213287,35.2937063 C35.2222527,35.7408194 34.3913938,36 33.5,36 C32.8538492,36 32.2395063,35.8638144 31.6841084,35.6185806 L28.9732848,39.8542425 C26.0110474,38.2457719 24,35.1077386 24,31.5 C24,28.0207224 25.8703821,24.9782959 28.6605208,23.3233462 L31.2821978,27.5835714 C29.9194085,28.3569564 29,29.8211085 29,31.5 C29,33.3391306 30.1032868,34.9205747 31.6841084,35.6185806 Z" id="Combined-Shape" fill="#FFFFFF"></path>
                            <path d="M33,43.495389 C33,43.2217932 33.2319336,43 33.5,43 C33.7761424,43 34,43.2157526 34,43.495389 L34,45.504611 C34,45.7782068 33.7680664,46 33.5,46 C33.2238576,46 33,45.7842474 33,45.504611 L33,43.495389 Z M33,17.495389 C33,17.2217932 33.2319336,17 33.5,17 C33.7761424,17 34,17.2157526 34,17.495389 L34,19.504611 C34,19.7782068 33.7680664,20 33.5,20 C33.2238576,20 33,19.7842474 33,19.504611 L33,17.495389 Z M19,31.5 C19,31.2238576 19.2157526,31 19.495389,31 L21.504611,31 C21.7782068,31 22,31.2319336 22,31.5 C22,31.7761424 21.7842474,32 21.504611,32 L19.495389,32 C19.2217932,32 19,31.7680664 19,31.5 Z M45,31.5 C45,31.2238576 45.2157526,31 45.495389,31 L47.504611,31 C47.7782068,31 48,31.2319336 48,31.5 C48,31.7761424 47.7842474,32 47.504611,32 L45.495389,32 C45.2217932,32 45,31.7680664 45,31.5 Z" id="Dashes" fill="#FFFFFF"></path>
                            <path d="M33,43.495389 C33,43.2217932 33.2319336,43 33.5,43 C33.7761424,43 34,43.2157526 34,43.495389 L34,45.504611 C34,45.7782068 33.7680664,46 33.5,46 C33.2238576,46 33,45.7842474 33,45.504611 L33,43.495389 Z M33,17.495389 C33,17.2217932 33.2319336,17 33.5,17 C33.7761424,17 34,17.2157526 34,17.495389 L34,19.504611 C34,19.7782068 33.7680664,20 33.5,20 C33.2238576,20 33,19.7842474 33,19.504611 L33,17.495389 Z M19,31.5 C19,31.2238576 19.2157526,31 19.495389,31 L21.504611,31 C21.7782068,31 22,31.2319336 22,31.5 C22,31.7761424 21.7842474,32 21.504611,32 L19.495389,32 C19.2217932,32 19,31.7680664 19,31.5 Z M45,31.5 C45,31.2238576 45.2157526,31 45.495389,31 L47.504611,31 C47.7782068,31 48,31.2319336 48,31.5 C48,31.7761424 47.7842474,32 47.504611,32 L45.495389,32 C45.2217932,32 45,31.7680664 45,31.5 Z" id="Dashes" fill="#FFFFFF" transform="translate(33.500000, 31.500000) rotate(-300.000000) translate(-33.500000, -31.500000) "></path>
                            <path d="M33,43.495389 C33,43.2217932 33.2319336,43 33.5,43 C33.7761424,43 34,43.2157526 34,43.495389 L34,45.504611 C34,45.7782068 33.7680664,46 33.5,46 C33.2238576,46 33,45.7842474 33,45.504611 L33,43.495389 Z M33,17.495389 C33,17.2217932 33.2319336,17 33.5,17 C33.7761424,17 34,17.2157526 34,17.495389 L34,19.504611 C34,19.7782068 33.7680664,20 33.5,20 C33.2238576,20 33,19.7842474 33,19.504611 L33,17.495389 Z M19,31.5 C19,31.2238576 19.2157526,31 19.495389,31 L21.504611,31 C21.7782068,31 22,31.2319336 22,31.5 C22,31.7761424 21.7842474,32 21.504611,32 L19.495389,32 C19.2217932,32 19,31.7680664 19,31.5 Z M45,31.5 C45,31.2238576 45.2157526,31 45.495389,31 L47.504611,31 C47.7782068,31 48,31.2319336 48,31.5 C48,31.7761424 47.7842474,32 47.504611,32 L45.495389,32 C45.2217932,32 45,31.7680664 45,31.5 Z" id="Dashes" fill="#FFFFFF" transform="translate(33.500000, 31.500000) rotate(30.000000) translate(-33.500000, -31.500000) "></path>
                            <circle id="Base" stroke="#FFFFFF" stroke-width="2" cx="33.5" cy="31.5" r="14.5"></circle>
                            <path d="M22.56748,12.4043327 C15.9544697,16.1985386 11.5,23.3290707 11.5,31.5 C11.5,39.6118595 15.8902975,46.6983102 22.4243979,50.5128573 L22.4243979,50.5128573" id="Oval-88" stroke="#FFFFFF" stroke-dasharray="4"></path>
                            <path d="M17.4357527,40.1678073 C20.5210785,45.873882 26.5578813,49.75 33.5,49.75 C36.7253821,49.75 39.7553399,48.9132894 42.3846595,47.4450824" id="Oval-88" stroke="#FFFFFF" stroke-dasharray="4"></path>
                            <text id="7" font-family="WorkSans-Regular, Work Sans" font-size="10" font-weight="normal" letter-spacing="0.320000023" fill="#FFFFFF">
                                <tspan x="18" y="61">7</tspan>
                            </text>
                            <text id="11" font-family="WorkSans-Regular, Work Sans" font-size="10" font-weight="normal" letter-spacing="0.320000023" fill="#FFFFFF">
                                <tspan x="15" y="9">11</tspan>
                            </text>
                            <text id="20" font-family="WorkSans-Regular, Work Sans" font-size="10" font-weight="normal" letter-spacing="0.320000023" fill="#FFFFFF">
                                <tspan x="0" y="50">20</tspan>
                            </text>
                            <text id="17" font-family="WorkSans-Regular, Work Sans" font-size="10" font-weight="normal" letter-spacing="0.320000023" fill="#FFFFFF">
                                <tspan x="43" y="60">17</tspan>
                            </text>
                        </g>
                    </g>
                </g>
                <g id="Description-Lines" transform="translate(13.000000, 0.000000)">
                    <g id="working-hours" transform="translate(0.000000, 2.000000)">
                        <path d="M334.5,224.089844 C334.5,173.881251 113,185.614519 113,125" id="Path" stroke="#FFFFFF" stroke-width="2" stroke-dasharray="8" opacity="0.5"></path>
                        <path d="M478,0.45703125 C478,74.5 112.5,38.6410389 112.5,101.013991" id="Path" stroke="#9A949A" stroke-width="2" stroke-dasharray="8"></path>
                        <rect id="Base" fill="#9A949A" x="0" y="101" width="225" height="24" rx="4"></rect>
                        <text id="Changing-the-working" font-family="WorkSans-Medium, Work Sans" font-size="14" font-weight="400" letter-spacing="0.448000014" fill="#362A35">
                            <tspan x="11.0379998" y="118">Changing the working hours</tspan>
                        </text>
                    </g>
                    <g id="ventilation" transform="translate(342.000000, 2.000000)">
                        <path d="M404,224.089844 C404,172.747269 85.5,186.983523 85.5,125" id="Path" stroke="#FFFFFF" stroke-width="2" stroke-dasharray="8" opacity="0.5"></path>
                        <path d="M136,0.45703125 C136,74 85.5,50.6701965 85.5,100.883363" id="Path" stroke="#9A949A" stroke-width="2" stroke-dasharray="8"></path>
                        <rect id="Base" fill="#9A949A" x="0" y="101" width="171" height="24" rx="4"></rect>
                        <text id="Increased-ventilatio" font-family="WorkSans-Medium, Work Sans" font-size="14" font-weight="400" letter-spacing="0.448000014" fill="#362A35">
                            <tspan x="8.82199985" y="118">Increased ventilation</tspan>
                        </text>
                    </g>
                    <g id="solar-blinds" transform="translate(478.000000, 1.000000)">
                        <path d="M372,225.089844 C372,134.907808 200.5,187.983523 200.5,126" id="Path" stroke="#FFFFFF" stroke-width="2" stroke-dasharray="8" opacity="0.5"></path>
                        <path d="M0,0 C0,93 200.5,50.9416809 200.5,101.883363" id="Path" stroke="#9A949A" stroke-width="2" stroke-dasharray="8"></path>
                        <rect id="Base" fill="#9A949A" x="151" y="102" width="99" height="24" rx="4"></rect>
                        <text id="Solar-blinds" font-family="WorkSans-Medium, Work Sans" font-size="14" font-weight="400" letter-spacing="0.448000014" fill="#362A35">
                            <tspan x="157.425" y="119">Solar blinds</tspan>
                        </text>
                    </g>
                    <g id="air-conditioning" transform="translate(478.000000, 2.000000)">
                        <path d="M475,224.089844 C475,186.686711 433.5,185.516407 433.5,123.532884" id="Path" stroke="#FFFFFF" stroke-width="2" stroke-dasharray="8" opacity="0.5"></path>
                        <path d="M5.68434189e-14,0.45703125 C5.68434189e-14,67.5 433.5,25 433.5,100.883363" id="Path" stroke="#9A949A" stroke-width="2" stroke-dasharray="8"></path>
                        <rect id="Base" fill="#9A949A" x="367" y="101" width="133" height="24" rx="4"></rect>
                        <text id="Air-conditioning" font-family="WorkSans-Medium, Work Sans" font-size="14" font-weight="400" letter-spacing="0.448000014" fill="#362A35">
                            <tspan x="376.369" y="118">Air conditioning</tspan>
                        </text>
                    </g>
                    <path d="M378,1 L578,1" id="Line" stroke="#FFFFFF" stroke-width="2" stroke-linecap="square" opacity="0.5"></path>
                </g>
            </g>
        </g>
    </g>
</svg>