<?xml version="1.0" encoding="UTF-8" standalone="no"?>
<svg width="1032px" height="310px" viewBox="0 0 1032 310" version="1.1" xmlns="http://www.w3.org/2000/svg" xmlns:xlink="http://www.w3.org/1999/xlink">
    <!-- Generator: Sketch 3.8.3 (29802) - http://www.bohemiancoding.com/sketch -->
    <title>line-chart-selection</title>
    <desc>Created with Sketch.</desc>
    <defs></defs>
    <g id="_Exports" stroke="none" stroke-width="1" fill="none" fill-rule="evenodd">
        <g id="line-chart-selection">
            <g id="Group" transform="translate(13.000000, 0.000000)">
                <g id="Sections" transform="translate(0.000000, 227.000000)">
                    <polyline id="Rectangle-22" stroke="#FFFFFF" stroke-width="2" opacity="0.5" points="0 83 0 0 0 0 700 0 700 83"></polyline>
                    <polyline id="Rectangle-22" stroke="#FFFFFF" stroke-width="2" opacity="0.5" points="734 83 734 0 734 0 800 0 800 83"></polyline>
                    <polyline id="Rectangle-22" stroke="#FFFFFF" stroke-width="2" opacity="0.5" points="837 83 837 0 837 0 903 0 903 83"></polyline>
                    <polyline id="Rectangle-22" stroke="#FFFFFF" stroke-width="2" opacity="0.5" points="940 83 940 0 1006 0 1006 83"></polyline>
                    <g id="Icons" transform="translate(15.000000, 8.000000)">
                        <g id="Ventilation" transform="translate(736.000000, 18.000000)" stroke="#FFFFFF">
                            <path d="M16,15.9999999 C16.0002866,15.9990192 17.8181818,9.77749754 17.8181818,6.22222222 C17.8181818,2.66666667 14.6363636,1.56215241e-12 12.3636364,0 C10.0909091,-1.56215241e-12 6,0.888888889 6,4.44444444 C6,8 10.1325071,7.82154835 11.4545455,9.77777778 C13.5737399,12.9135647 16,16 16,16 C16,16 14.1818182,22.2222222 14.1818182,25.7777778 C14.1818182,29.3333333 17.3636364,32 19.6363636,32 C21.9090909,32 26,31.1111111 26,27.5555556 C26,24 21.8674929,24.1784516 20.5454545,22.2222222 C18.4262831,19.0864694 16.0000527,16.000067 16,16 Z" id="Combined-Shape" stroke-width="1.77777778"></path>
                            <path d="M16,15.9999999 C16.0002866,15.9990192 17.8181818,9.77749754 17.8181818,6.22222222 C17.8181818,2.66666667 14.6363636,1.56215241e-12 12.3636364,0 C10.0909091,-1.56215241e-12 6,0.888888889 6,4.44444444 C6,8 10.1325071,7.82154835 11.4545455,9.77777778 C13.5737399,12.9135647 16,16 16,16 C16,16 14.1818182,22.2222222 14.1818182,25.7777778 C14.1818182,29.3333333 17.3636364,32 19.6363636,32 C21.9090909,32 26,31.1111111 26,27.5555556 C26,24 21.8674929,24.1784516 20.5454545,22.2222222 C18.4262831,19.0864694 16.0000527,16.000067 16,16 Z" id="Combined-Shape" stroke-width="1.77777778" transform="translate(16.000000, 16.000000) rotate(-90.000000) translate(-16.000000, -16.000000) "></path>
                            <circle id="Oval-51" stroke-width="2" fill="#362A35" cx="16" cy="16" r="4"></circle>
                        </g>
                        <g id="Solar-Blinds" transform="translate(839.000000, 19.000000)">
                            <rect id="Rectangle-26" stroke="#FFFFFF" stroke-width="2" x="0" y="0" width="32" height="28" rx="2"></rect>
                            <path d="M16.5,19.0630087 L16.5,17 L31,17 L31,15 L27,15 L27,13 L31,13 L31,11 L27,11 L27,9 L31,9 L31,7 L27,7 L27,5 L31,5 L31,3 L27,3 L27,1 L26,1 L26,3 L6,3 L6,1 L5,1 L5,3 L1,3 L1,5 L5,5 L5,7 L1,7 L1,9 L5,9 L5,11 L1,11 L1,13 L5,13 L5,15 L1,15 L1,17 L15.5,17 L15.5,19.0630087 C14.6373864,19.2850301 14,20.0680803 14,21 C14,22.1045695 14.8954305,23 16,23 C17.1045695,23 18,22.1045695 18,21 C18,20.0680803 17.3626136,19.2850301 16.5,19.0630087 Z M26,15 L6,15 L6,13 L26,13 L26,15 Z M26,5 L6,5 L6,7 L26,7 L26,5 Z M26,9 L6,9 L6,11 L26,11 L26,9 Z M16,22 C16.5522847,22 17,21.5522847 17,21 C17,20.4477153 16.5522847,20 16,20 C15.4477153,20 15,20.4477153 15,21 C15,21.5522847 15.4477153,22 16,22 Z" id="Combined-Shape" fill="#FFFFFF"></path>
                        </g>
                        <g id="Air-Conditioning-v2" transform="translate(943.000000, 20.000000)" stroke-width="2" stroke="#FFFFFF">
                            <g id="String" transform="translate(11.000000, 0.000000)">
                                <polyline id="End" stroke-linecap="round" points="0.5 27.5 4 24 7.5 27.5"></polyline>
                                <path d="M4,4 L4,24" id="Line"></path>
                                <polyline id="End" stroke-linecap="round" points="0.5 0.5 4 4 7.5 0.5"></polyline>
                            </g>
                            <g id="String" transform="translate(15.000000, 14.000000) rotate(-300.000000) translate(-15.000000, -14.000000) translate(11.000000, 0.000000)">
                                <polyline id="End" stroke-linecap="round" points="0.5 27.5 4 24 7.5 27.5"></polyline>
                                <path d="M4,4 L4,24" id="Line"></path>
                                <polyline id="End" stroke-linecap="round" points="0.5 0.5 4 4 7.5 0.5"></polyline>
                            </g>
                            <g id="String" transform="translate(15.000000, 14.000000) rotate(-60.000000) translate(-15.000000, -14.000000) translate(11.000000, 0.000000)">
                                <polyline id="End" stroke-linecap="round" points="0.5 27.5 4 24 7.5 27.5"></polyline>
                                <path d="M4,4 L4,24" id="Line"></path>
                                <polyline id="End" stroke-linecap="round" points="0.5 0.5 4 4 7.5 0.5"></polyline>
                            </g>
                        </g>
                        <g id="Clock-1" transform="translate(0.000000, 5.000000)">
                            <path d="M33.9725356,28 L38.9870679,28 C38.7356474,32.8487018 34.8487018,36.7356474 30,36.9870679 L30,31.9725356 C32.0858083,31.7419612 33.7419612,30.0858083 33.9725356,28 Z M25.0274644,28 L20.0129321,28 C20.0043462,27.8344194 20,27.6677173 20,27.5 C20,22.2532949 24.2532949,18 29.5,18 C31.4909062,18 33.3387725,18.6124262 34.8654865,19.659166 L32.3318361,24.0025667 C31.5584951,23.3756251 30.5731135,23 29.5,23 C27.0147186,23 25,25.0147186 25,27.5 C25,27.6690045 25.0093167,27.8358331 25.0274644,28 Z" id="Combined-Shape" fill="#FFFFFF"></path>
                            <path d="M29,39.495389 C29,39.2217932 29.2319336,39 29.5,39 C29.7761424,39 30,39.2157526 30,39.495389 L30,41.504611 C30,41.7782068 29.7680664,42 29.5,42 C29.2238576,42 29,41.7842474 29,41.504611 L29,39.495389 Z M29,13.495389 C29,13.2217932 29.2319336,13 29.5,13 C29.7761424,13 30,13.2157526 30,13.495389 L30,15.504611 C30,15.7782068 29.7680664,16 29.5,16 C29.2238576,16 29,15.7842474 29,15.504611 L29,13.495389 Z M15,27.5 C15,27.2238576 15.2157526,27 15.495389,27 L17.504611,27 C17.7782068,27 18,27.2319336 18,27.5 C18,27.7761424 17.7842474,28 17.504611,28 L15.495389,28 C15.2217932,28 15,27.7680664 15,27.5 Z M41,27.5 C41,27.2238576 41.2157526,27 41.495389,27 L43.504611,27 C43.7782068,27 44,27.2319336 44,27.5 C44,27.7761424 43.7842474,28 43.504611,28 L41.495389,28 C41.2217932,28 41,27.7680664 41,27.5 Z" id="Dashes" fill="#FFFFFF"></path>
                            <path d="M29,39.495389 C29,39.2217932 29.2319336,39 29.5,39 C29.7761424,39 30,39.2157526 30,39.495389 L30,41.504611 C30,41.7782068 29.7680664,42 29.5,42 C29.2238576,42 29,41.7842474 29,41.504611 L29,39.495389 Z M29,13.495389 C29,13.2217932 29.2319336,13 29.5,13 C29.7761424,13 30,13.2157526 30,13.495389 L30,15.504611 C30,15.7782068 29.7680664,16 29.5,16 C29.2238576,16 29,15.7842474 29,15.504611 L29,13.495389 Z M15,27.5 C15,27.2238576 15.2157526,27 15.495389,27 L17.504611,27 C17.7782068,27 18,27.2319336 18,27.5 C18,27.7761424 17.7842474,28 17.504611,28 L15.495389,28 C15.2217932,28 15,27.7680664 15,27.5 Z M41,27.5 C41,27.2238576 41.2157526,27 41.495389,27 L43.504611,27 C43.7782068,27 44,27.2319336 44,27.5 C44,27.7761424 43.7842474,28 43.504611,28 L41.495389,28 C41.2217932,28 41,27.7680664 41,27.5 Z" id="Dashes" fill="#FFFFFF" transform="translate(29.500000, 27.500000) rotate(-300.000000) translate(-29.500000, -27.500000) "></path>
                            <path d="M29,39.495389 C29,39.2217932 29.2319336,39 29.5,39 C29.7761424,39 30,39.2157526 30,39.495389 L30,41.504611 C30,41.7782068 29.7680664,42 29.5,42 C29.2238576,42 29,41.7842474 29,41.504611 L29,39.495389 Z M29,13.495389 C29,13.2217932 29.2319336,13 29.5,13 C29.7761424,13 30,13.2157526 30,13.495389 L30,15.504611 C30,15.7782068 29.7680664,16 29.5,16 C29.2238576,16 29,15.7842474 29,15.504611 L29,13.495389 Z M15,27.5 C15,27.2238576 15.2157526,27 15.495389,27 L17.504611,27 C17.7782068,27 18,27.2319336 18,27.5 C18,27.7761424 17.7842474,28 17.504611,28 L15.495389,28 C15.2217932,28 15,27.7680664 15,27.5 Z M41,27.5 C41,27.2238576 41.2157526,27 41.495389,27 L43.504611,27 C43.7782068,27 44,27.2319336 44,27.5 C44,27.7761424 43.7842474,28 43.504611,28 L41.495389,28 C41.2217932,28 41,27.7680664 41,27.5 Z" id="Dashes" fill="#FFFFFF" transform="translate(29.500000, 27.500000) rotate(30.000000) translate(-29.500000, -27.500000) "></path>
                            <circle id="Base" stroke="#FFFFFF" stroke-width="2" cx="29.5" cy="27.5" r="14.5"></circle>
                            <path d="M41.4722545,9.03980066 C38.0268037,6.80068793 33.9152978,5.5 29.5,5.5 C17.3497355,5.5 7.5,15.3497355 7.5,27.5 M29.5,49.5 L29.5,49.5 C41.6502645,49.5 51.5,39.6502645 51.5,27.5" id="Base" stroke="#FFFFFF" stroke-dasharray="4"></path>
                            <text id="9" font-family="WorkSans-Regular, Work Sans" font-size="8" font-weight="normal" letter-spacing="0.256000012" fill="#FFFFFF">
                                <tspan x="0" y="31">9</tspan>
                            </text>
                            <text id="13" font-family="WorkSans-Regular, Work Sans" font-size="8" font-weight="normal" letter-spacing="0.256000012" fill="#FFFFFF">
                                <tspan x="42" y="7">13</tspan>
                            </text>
                            <text id="15" font-family="WorkSans-Regular, Work Sans" font-size="8" font-weight="normal" letter-spacing="0.256000012" fill="#FFFFFF">
                                <tspan x="54" y="30">15</tspan>
                            </text>
                            <text id="18" font-family="WorkSans-Regular, Work Sans" font-size="8" font-weight="normal" letter-spacing="0.256000012" fill="#FFFFFF">
                                <tspan x="26" y="59">18</tspan>
                            </text>
                        </g>
                        <g id="Clock-2" transform="translate(103.000000, 5.000000)">
                            <path d="M27.7544969,31.6489425 L25.1189514,35.931704 C26.4298312,36.6142185 27.9198636,37 29.5,37 C33.0440903,37 36.1349024,35.0592851 37.7676895,32.182602 L33.3623513,29.8104969 C32.5760375,31.1221175 31.140539,32 29.5,32 C28.8810254,32 28.2912393,31.8750291 27.7544969,31.6489425 Z M32.3318361,24.0025667 L34.8654865,19.659166 C33.3387725,18.6124262 31.4909062,18 29.5,18 C24.2532949,18 20,22.2532949 20,27.5 C20,27.6677173 20.0043462,27.8344194 20.0129321,28 L25.0274644,28 C25.0093167,27.8358331 25,27.6690045 25,27.5 C25,25.0147186 27.0147186,23 29.5,23 C30.5731135,23 31.5584951,23.3756251 32.3318361,24.0025667 Z" id="Combined-Shape" fill="#FFFFFF"></path>
                            <path d="M29,39.495389 C29,39.2217932 29.2319336,39 29.5,39 C29.7761424,39 30,39.2157526 30,39.495389 L30,41.504611 C30,41.7782068 29.7680664,42 29.5,42 C29.2238576,42 29,41.7842474 29,41.504611 L29,39.495389 Z M29,13.495389 C29,13.2217932 29.2319336,13 29.5,13 C29.7761424,13 30,13.2157526 30,13.495389 L30,15.504611 C30,15.7782068 29.7680664,16 29.5,16 C29.2238576,16 29,15.7842474 29,15.504611 L29,13.495389 Z M15,27.5 C15,27.2238576 15.2157526,27 15.495389,27 L17.504611,27 C17.7782068,27 18,27.2319336 18,27.5 C18,27.7761424 17.7842474,28 17.504611,28 L15.495389,28 C15.2217932,28 15,27.7680664 15,27.5 Z M41,27.5 C41,27.2238576 41.2157526,27 41.495389,27 L43.504611,27 C43.7782068,27 44,27.2319336 44,27.5 C44,27.7761424 43.7842474,28 43.504611,28 L41.495389,28 C41.2217932,28 41,27.7680664 41,27.5 Z" id="Dashes" fill="#FFFFFF"></path>
                            <path d="M29,39.495389 C29,39.2217932 29.2319336,39 29.5,39 C29.7761424,39 30,39.2157526 30,39.495389 L30,41.504611 C30,41.7782068 29.7680664,42 29.5,42 C29.2238576,42 29,41.7842474 29,41.504611 L29,39.495389 Z M29,13.495389 C29,13.2217932 29.2319336,13 29.5,13 C29.7761424,13 30,13.2157526 30,13.495389 L30,15.504611 C30,15.7782068 29.7680664,16 29.5,16 C29.2238576,16 29,15.7842474 29,15.504611 L29,13.495389 Z M15,27.5 C15,27.2238576 15.2157526,27 15.495389,27 L17.504611,27 C17.7782068,27 18,27.2319336 18,27.5 C18,27.7761424 17.7842474,28 17.504611,28 L15.495389,28 C15.2217932,28 15,27.7680664 15,27.5 Z M41,27.5 C41,27.2238576 41.2157526,27 41.495389,27 L43.504611,27 C43.7782068,27 44,27.2319336 44,27.5 C44,27.7761424 43.7842474,28 43.504611,28 L41.495389,28 C41.2217932,28 41,27.7680664 41,27.5 Z" id="Dashes" fill="#FFFFFF" transform="translate(29.500000, 27.500000) rotate(-300.000000) translate(-29.500000, -27.500000) "></path>
                            <path d="M29,39.495389 C29,39.2217932 29.2319336,39 29.5,39 C29.7761424,39 30,39.2157526 30,39.495389 L30,41.504611 C30,41.7782068 29.7680664,42 29.5,42 C29.2238576,42 29,41.7842474 29,41.504611 L29,39.495389 Z M29,13.495389 C29,13.2217932 29.2319336,13 29.5,13 C29.7761424,13 30,13.2157526 30,13.495389 L30,15.504611 C30,15.7782068 29.7680664,16 29.5,16 C29.2238576,16 29,15.7842474 29,15.504611 L29,13.495389 Z M15,27.5 C15,27.2238576 15.2157526,27 15.495389,27 L17.504611,27 C17.7782068,27 18,27.2319336 18,27.5 C18,27.7761424 17.7842474,28 17.504611,28 L15.495389,28 C15.2217932,28 15,27.7680664 15,27.5 Z M41,27.5 C41,27.2238576 41.2157526,27 41.495389,27 L43.504611,27 C43.7782068,27 44,27.2319336 44,27.5 C44,27.7761424 43.7842474,28 43.504611,28 L41.495389,28 C41.2217932,28 41,27.7680664 41,27.5 Z" id="Dashes" fill="#FFFFFF" transform="translate(29.500000, 27.500000) rotate(30.000000) translate(-29.500000, -27.500000) "></path>
                            <circle id="Base" stroke="#FFFFFF" stroke-width="2" cx="29.5" cy="27.5" r="14.5"></circle>
                            <path d="M41.4722545,9.03980066 C38.0268037,6.80068793 33.9152978,5.5 29.5,5.5 C17.3497355,5.5 7.5,15.3497355 7.5,27.5 M18.5,46.5525589 L18.5,46.5525589 C29.0224377,52.6276911 42.4774266,49.0224377 48.5525589,38.5" id="Base" stroke="#FFFFFF" stroke-dasharray="4"></path>
                            <text id="9" font-family="WorkSans-Regular, Work Sans" font-size="8" font-weight="normal" letter-spacing="0.256000012" fill="#FFFFFF">
                                <tspan x="0" y="31">9</tspan>
                            </text>
                            <text id="13" font-family="WorkSans-Regular, Work Sans" font-size="8" font-weight="normal" letter-spacing="0.256000012" fill="#FFFFFF">
                                <tspan x="42" y="7">13</tspan>
                            </text>
                            <text id="16" font-family="WorkSans-Regular, Work Sans" font-size="8" font-weight="normal" letter-spacing="0.256000012" fill="#FFFFFF">
                                <tspan x="52" y="44">16</tspan>
                            </text>
                            <text id="19" font-family="WorkSans-Regular, Work Sans" font-size="8" font-weight="normal" letter-spacing="0.256000012" fill="#FFFFFF">
                                <tspan x="9" y="55">19</tspan>
                            </text>
                        </g>
                        <g id="Clock-3" transform="translate(205.000000, 5.000000)">
                            <path d="M27.8197113,30.0901444 L23.3228191,32.3385904 C24.9776499,35.1292207 28.020353,37 31.5,37 C33.2951084,37 34.9739283,36.5021098 36.4058985,35.6368908 L33.9058873,31.3035381 C33.2100316,31.7446167 32.3848398,32 31.5,32 C29.9790051,32 28.6342573,31.2453965 27.8197113,30.0901444 Z M34.3318361,24.0025667 L36.8654865,19.659166 C35.3387725,18.6124262 33.4909062,18 31.5,18 C26.2532949,18 22,22.2532949 22,27.5 C22,27.6677173 22.0043462,27.8344194 22.0129321,28 L27.0274644,28 C27.0093167,27.8358331 27,27.6690045 27,27.5 C27,25.0147186 29.0147186,23 31.5,23 C32.5731135,23 33.5584951,23.3756251 34.3318361,24.0025667 Z" id="Combined-Shape" fill="#FFFFFF"></path>
                            <path d="M31,39.495389 C31,39.2217932 31.2319336,39 31.5,39 C31.7761424,39 32,39.2157526 32,39.495389 L32,41.504611 C32,41.7782068 31.7680664,42 31.5,42 C31.2238576,42 31,41.7842474 31,41.504611 L31,39.495389 Z M31,13.495389 C31,13.2217932 31.2319336,13 31.5,13 C31.7761424,13 32,13.2157526 32,13.495389 L32,15.504611 C32,15.7782068 31.7680664,16 31.5,16 C31.2238576,16 31,15.7842474 31,15.504611 L31,13.495389 Z M17,27.5 C17,27.2238576 17.2157526,27 17.495389,27 L19.504611,27 C19.7782068,27 20,27.2319336 20,27.5 C20,27.7761424 19.7842474,28 19.504611,28 L17.495389,28 C17.2217932,28 17,27.7680664 17,27.5 Z M43,27.5 C43,27.2238576 43.2157526,27 43.495389,27 L45.504611,27 C45.7782068,27 46,27.2319336 46,27.5 C46,27.7761424 45.7842474,28 45.504611,28 L43.495389,28 C43.2217932,28 43,27.7680664 43,27.5 Z" id="Dashes" fill="#FFFFFF"></path>
                            <path d="M31,39.495389 C31,39.2217932 31.2319336,39 31.5,39 C31.7761424,39 32,39.2157526 32,39.495389 L32,41.504611 C32,41.7782068 31.7680664,42 31.5,42 C31.2238576,42 31,41.7842474 31,41.504611 L31,39.495389 Z M31,13.495389 C31,13.2217932 31.2319336,13 31.5,13 C31.7761424,13 32,13.2157526 32,13.495389 L32,15.504611 C32,15.7782068 31.7680664,16 31.5,16 C31.2238576,16 31,15.7842474 31,15.504611 L31,13.495389 Z M17,27.5 C17,27.2238576 17.2157526,27 17.495389,27 L19.504611,27 C19.7782068,27 20,27.2319336 20,27.5 C20,27.7761424 19.7842474,28 19.504611,28 L17.495389,28 C17.2217932,28 17,27.7680664 17,27.5 Z M43,27.5 C43,27.2238576 43.2157526,27 43.495389,27 L45.504611,27 C45.7782068,27 46,27.2319336 46,27.5 C46,27.7761424 45.7842474,28 45.504611,28 L43.495389,28 C43.2217932,28 43,27.7680664 43,27.5 Z" id="Dashes" fill="#FFFFFF" transform="translate(31.500000, 27.500000) rotate(-300.000000) translate(-31.500000, -27.500000) "></path>
                            <path d="M31,39.495389 C31,39.2217932 31.2319336,39 31.5,39 C31.7761424,39 32,39.2157526 32,39.495389 L32,41.504611 C32,41.7782068 31.7680664,42 31.5,42 C31.2238576,42 31,41.7842474 31,41.504611 L31,39.495389 Z M31,13.495389 C31,13.2217932 31.2319336,13 31.5,13 C31.7761424,13 32,13.2157526 32,13.495389 L32,15.504611 C32,15.7782068 31.7680664,16 31.5,16 C31.2238576,16 31,15.7842474 31,15.504611 L31,13.495389 Z M17,27.5 C17,27.2238576 17.2157526,27 17.495389,27 L19.504611,27 C19.7782068,27 20,27.2319336 20,27.5 C20,27.7761424 19.7842474,28 19.504611,28 L17.495389,28 C17.2217932,28 17,27.7680664 17,27.5 Z M43,27.5 C43,27.2238576 43.2157526,27 43.495389,27 L45.504611,27 C45.7782068,27 46,27.2319336 46,27.5 C46,27.7761424 45.7842474,28 45.504611,28 L43.495389,28 C43.2217932,28 43,27.7680664 43,27.5 Z" id="Dashes" fill="#FFFFFF" transform="translate(31.500000, 27.500000) rotate(30.000000) translate(-31.500000, -27.500000) "></path>
                            <circle id="Base" stroke="#FFFFFF" stroke-width="2" cx="31.5" cy="27.5" r="14.5"></circle>
                            <path d="M43.4722545,9.03980066 C40.0268037,6.80068793 35.9152978,5.5 31.5,5.5 C19.3497355,5.5 9.5,15.3497355 9.5,27.5 M12.4474411,38.5 L12.4474411,38.5 C18.5225734,49.0224377 31.9775623,52.6276911 42.5,46.5525589" id="Base" stroke="#FFFFFF" stroke-dasharray="4"></path>
                            <text id="9" font-family="WorkSans-Regular, Work Sans" font-size="8" font-weight="normal" letter-spacing="0.256000012" fill="#FFFFFF">
                                <tspan x="2" y="31">9</tspan>
                            </text>
                            <text id="13" font-family="WorkSans-Regular, Work Sans" font-size="8" font-weight="normal" letter-spacing="0.256000012" fill="#FFFFFF">
                                <tspan x="44" y="7">13</tspan>
                            </text>
                            <text id="17" font-family="WorkSans-Regular, Work Sans" font-size="8" font-weight="normal" letter-spacing="0.256000012" fill="#FFFFFF">
                                <tspan x="43" y="54">17</tspan>
                            </text>
                            <text id="20" font-family="WorkSans-Regular, Work Sans" font-size="8" font-weight="normal" letter-spacing="0.256000012" fill="#FFFFFF">
                                <tspan x="0" y="45">20</tspan>
                            </text>
                        </g>
                        <g id="Clock-4" transform="translate(311.000000, 0.000000)">
                            <path d="M31.6185806,30.6841084 L35.8542425,27.9732848 C36.5849577,29.3190053 37,30.8610335 37,32.5 C37,35.9919293 35.1159906,39.0438247 32.3090053,40.6946524 L29.8644976,36.32946 C31.1461571,35.5364166 32,34.1179212 32,32.5 C32,31.8538492 31.8638144,31.2395063 31.6185806,30.6841084 Z M23.8601593,35.146584 L19.3966546,37.4609939 C18.5107718,36.0170669 18,34.318182 18,32.5 C18,27.2532949 22.2532949,23 27.5,23 C27.6677173,23 27.8344194,23.0043462 28,23.0129321 L28,28.0274644 C27.8358331,28.0093167 27.6690045,28 27.5,28 C25.0147186,28 23,30.0147186 23,32.5 C23,33.489198 23.3191756,34.4038485 23.8601593,35.146584 Z" id="Combined-Shape" fill="#FFFFFF"></path>
                            <path d="M27,44.495389 C27,44.2217932 27.2319336,44 27.5,44 C27.7761424,44 28,44.2157526 28,44.495389 L28,46.504611 C28,46.7782068 27.7680664,47 27.5,47 C27.2238576,47 27,46.7842474 27,46.504611 L27,44.495389 Z M27,18.495389 C27,18.2217932 27.2319336,18 27.5,18 C27.7761424,18 28,18.2157526 28,18.495389 L28,20.504611 C28,20.7782068 27.7680664,21 27.5,21 C27.2238576,21 27,20.7842474 27,20.504611 L27,18.495389 Z M13,32.5 C13,32.2238576 13.2157526,32 13.495389,32 L15.504611,32 C15.7782068,32 16,32.2319336 16,32.5 C16,32.7761424 15.7842474,33 15.504611,33 L13.495389,33 C13.2217932,33 13,32.7680664 13,32.5 Z M39,32.5 C39,32.2238576 39.2157526,32 39.495389,32 L41.504611,32 C41.7782068,32 42,32.2319336 42,32.5 C42,32.7761424 41.7842474,33 41.504611,33 L39.495389,33 C39.2217932,33 39,32.7680664 39,32.5 Z" id="Dashes" fill="#FFFFFF"></path>
                            <path d="M27,44.495389 C27,44.2217932 27.2319336,44 27.5,44 C27.7761424,44 28,44.2157526 28,44.495389 L28,46.504611 C28,46.7782068 27.7680664,47 27.5,47 C27.2238576,47 27,46.7842474 27,46.504611 L27,44.495389 Z M27,18.495389 C27,18.2217932 27.2319336,18 27.5,18 C27.7761424,18 28,18.2157526 28,18.495389 L28,20.504611 C28,20.7782068 27.7680664,21 27.5,21 C27.2238576,21 27,20.7842474 27,20.504611 L27,18.495389 Z M13,32.5 C13,32.2238576 13.2157526,32 13.495389,32 L15.504611,32 C15.7782068,32 16,32.2319336 16,32.5 C16,32.7761424 15.7842474,33 15.504611,33 L13.495389,33 C13.2217932,33 13,32.7680664 13,32.5 Z M39,32.5 C39,32.2238576 39.2157526,32 39.495389,32 L41.504611,32 C41.7782068,32 42,32.2319336 42,32.5 C42,32.7761424 41.7842474,33 41.504611,33 L39.495389,33 C39.2217932,33 39,32.7680664 39,32.5 Z" id="Dashes" fill="#FFFFFF" transform="translate(27.500000, 32.500000) rotate(-300.000000) translate(-27.500000, -32.500000) "></path>
                            <path d="M27,44.495389 C27,44.2217932 27.2319336,44 27.5,44 C27.7761424,44 28,44.2157526 28,44.495389 L28,46.504611 C28,46.7782068 27.7680664,47 27.5,47 C27.2238576,47 27,46.7842474 27,46.504611 L27,44.495389 Z M27,18.495389 C27,18.2217932 27.2319336,18 27.5,18 C27.7761424,18 28,18.2157526 28,18.495389 L28,20.504611 C28,20.7782068 27.7680664,21 27.5,21 C27.2238576,21 27,20.7842474 27,20.504611 L27,18.495389 Z M13,32.5 C13,32.2238576 13.2157526,32 13.495389,32 L15.504611,32 C15.7782068,32 16,32.2319336 16,32.5 C16,32.7761424 15.7842474,33 15.504611,33 L13.495389,33 C13.2217932,33 13,32.7680664 13,32.5 Z M39,32.5 C39,32.2238576 39.2157526,32 39.495389,32 L41.504611,32 C41.7782068,32 42,32.2319336 42,32.5 C42,32.7761424 41.7842474,33 41.504611,33 L39.495389,33 C39.2217932,33 39,32.7680664 39,32.5 Z" id="Dashes" fill="#FFFFFF" transform="translate(27.500000, 32.500000) rotate(30.000000) translate(-27.500000, -32.500000) "></path>
                            <circle id="Base" stroke="#FFFFFF" stroke-width="2" cx="27.5" cy="32.5" r="14.5"></circle>
                            <path d="M26.9655888,10.5023374 C23.4007936,10.58576 19.8056844,11.5389033 16.5,13.4474411 C5.97756228,19.5225734 2.37230887,32.9775623 8.44744112,43.5 M38.5,51.5525589 L38.5,51.5525589 C49.0224377,45.4774266 52.6276911,32.0224377 46.5525589,21.5" id="Base" stroke="#FFFFFF" stroke-dasharray="4"></path>
                            <text id="8" font-family="WorkSans-Regular, Work Sans" font-size="8" font-weight="normal" letter-spacing="0.256000012" fill="#FFFFFF">
                                <tspan x="0" y="47">8</tspan>
                            </text>
                            <text id="12" font-family="WorkSans-Regular, Work Sans" font-size="8" font-weight="normal" letter-spacing="0.256000012" fill="#FFFFFF">
                                <tspan x="23" y="7">12</tspan>
                            </text>
                            <text id="14" font-family="WorkSans-Regular, Work Sans" font-size="8" font-weight="normal" letter-spacing="0.256000012" fill="#FFFFFF">
                                <tspan x="47" y="20">14</tspan>
                            </text>
                            <text id="17" font-family="WorkSans-Regular, Work Sans" font-size="8" font-weight="normal" letter-spacing="0.256000012" fill="#FFFFFF">
                                <tspan x="37" y="60">17</tspan>
                            </text>
                        </g>
                        <g id="Clock-5" transform="translate(419.000000, 0.000000)">
                            <path d="M26.9725356,33 L31.9870679,33 C31.816893,36.2818621 29.9811711,39.1231139 27.3090053,40.6946524 L24.8644976,36.32946 C26.0122777,35.6192562 26.8169507,34.4074425 26.9725356,33 Z M20.6841084,36.6185806 L17.9732848,40.8542425 C15.0110474,39.2457719 13,36.1077386 13,32.5 C13,27.2532949 17.2532949,23 22.5,23 C22.6677173,23 22.8344194,23.0043462 23,23.0129321 L23,28.0274644 C22.8358331,28.0093167 22.6690045,28 22.5,28 C20.0147186,28 18,30.0147186 18,32.5 C18,34.3391306 19.1032868,35.9205747 20.6841084,36.6185806 Z" id="Combined-Shape" fill="#FFFFFF"></path>
                            <path d="M22,44.495389 C22,44.2217932 22.2319336,44 22.5,44 C22.7761424,44 23,44.2157526 23,44.495389 L23,46.504611 C23,46.7782068 22.7680664,47 22.5,47 C22.2238576,47 22,46.7842474 22,46.504611 L22,44.495389 Z M22,18.495389 C22,18.2217932 22.2319336,18 22.5,18 C22.7761424,18 23,18.2157526 23,18.495389 L23,20.504611 C23,20.7782068 22.7680664,21 22.5,21 C22.2238576,21 22,20.7842474 22,20.504611 L22,18.495389 Z M8,32.5 C8,32.2238576 8.2157526,32 8.49538898,32 L10.504611,32 C10.7782068,32 11,32.2319336 11,32.5 C11,32.7761424 10.7842474,33 10.504611,33 L8.49538898,33 C8.2217932,33 8,32.7680664 8,32.5 Z M34,32.5 C34,32.2238576 34.2157526,32 34.495389,32 L36.504611,32 C36.7782068,32 37,32.2319336 37,32.5 C37,32.7761424 36.7842474,33 36.504611,33 L34.495389,33 C34.2217932,33 34,32.7680664 34,32.5 Z" id="Dashes" fill="#FFFFFF"></path>
                            <path d="M22,44.495389 C22,44.2217932 22.2319336,44 22.5,44 C22.7761424,44 23,44.2157526 23,44.495389 L23,46.504611 C23,46.7782068 22.7680664,47 22.5,47 C22.2238576,47 22,46.7842474 22,46.504611 L22,44.495389 Z M22,18.495389 C22,18.2217932 22.2319336,18 22.5,18 C22.7761424,18 23,18.2157526 23,18.495389 L23,20.504611 C23,20.7782068 22.7680664,21 22.5,21 C22.2238576,21 22,20.7842474 22,20.504611 L22,18.495389 Z M8,32.5 C8,32.2238576 8.2157526,32 8.49538898,32 L10.504611,32 C10.7782068,32 11,32.2319336 11,32.5 C11,32.7761424 10.7842474,33 10.504611,33 L8.49538898,33 C8.2217932,33 8,32.7680664 8,32.5 Z M34,32.5 C34,32.2238576 34.2157526,32 34.495389,32 L36.504611,32 C36.7782068,32 37,32.2319336 37,32.5 C37,32.7761424 36.7842474,33 36.504611,33 L34.495389,33 C34.2217932,33 34,32.7680664 34,32.5 Z" id="Dashes" fill="#FFFFFF" transform="translate(22.500000, 32.500000) rotate(-300.000000) translate(-22.500000, -32.500000) "></path>
                            <path d="M22,44.495389 C22,44.2217932 22.2319336,44 22.5,44 C22.7761424,44 23,44.2157526 23,44.495389 L23,46.504611 C23,46.7782068 22.7680664,47 22.5,47 C22.2238576,47 22,46.7842474 22,46.504611 L22,44.495389 Z M22,18.495389 C22,18.2217932 22.2319336,18 22.5,18 C22.7761424,18 23,18.2157526 23,18.495389 L23,20.504611 C23,20.7782068 22.7680664,21 22.5,21 C22.2238576,21 22,20.7842474 22,20.504611 L22,18.495389 Z M8,32.5 C8,32.2238576 8.2157526,32 8.49538898,32 L10.504611,32 C10.7782068,32 11,32.2319336 11,32.5 C11,32.7761424 10.7842474,33 10.504611,33 L8.49538898,33 C8.2217932,33 8,32.7680664 8,32.5 Z M34,32.5 C34,32.2238576 34.2157526,32 34.495389,32 L36.504611,32 C36.7782068,32 37,32.2319336 37,32.5 C37,32.7761424 36.7842474,33 36.504611,33 L34.495389,33 C34.2217932,33 34,32.7680664 34,32.5 Z" id="Dashes" fill="#FFFFFF" transform="translate(22.500000, 32.500000) rotate(30.000000) translate(-22.500000, -32.500000) "></path>
                            <circle id="Base" stroke="#FFFFFF" stroke-width="2" cx="22.5" cy="32.5" r="14.5"></circle>
                            <path d="M22.5,10.5 C10.3497355,10.5 0.5,20.3497355 0.5,32.5 C0.5,40.6179388 4.89688042,47.7089312 11.4390921,51.521428 L11.4390921,51.521428 M33.5137099,51.5488543 C40.0819637,47.7430032 44.5,40.6374454 44.5,32.5" id="Oval-82" stroke="#FFFFFF" stroke-dasharray="4"></path>
                            <text id="7" font-family="WorkSans-Regular, Work Sans" font-size="8" font-weight="normal" letter-spacing="0.256000012" fill="#FFFFFF">
                                <tspan x="7" y="59">7</tspan>
                            </text>
                            <text id="12" font-family="WorkSans-Regular, Work Sans" font-size="8" font-weight="normal" letter-spacing="0.256000012" fill="#FFFFFF">
                                <tspan x="18" y="7">12</tspan>
                            </text>
                            <text id="15" font-family="WorkSans-Regular, Work Sans" font-size="8" font-weight="normal" letter-spacing="0.256000012" fill="#FFFFFF">
                                <tspan x="46" y="36">15</tspan>
                            </text>
                            <text id="17" font-family="WorkSans-Regular, Work Sans" font-size="8" font-weight="normal" letter-spacing="0.256000012" fill="#FFFFFF">
                                <tspan x="32" y="60">17</tspan>
                            </text>
                        </g>
                        <g id="Clock-6" transform="translate(524.000000, 4.000000)">
                            <path d="M25.0901444,24.8197113 L27.3385904,20.3228191 C25.9214336,19.4824517 24.2670581,19 22.5,19 C17.2532949,19 13,23.2532949 13,28.5 C13,33.7467051 17.2532949,38 22.5,38 C22.6677173,38 22.8344194,37.9956538 23,37.9870679 L23,32.9725356 C22.8358331,32.9906833 22.6690045,33 22.5,33 C20.0147186,33 18,30.9852814 18,28.5 C18,26.0147186 20.0147186,24 22.5,24 C23.4642865,24 24.3577329,24.3033021 25.0901444,24.8197113 Z" id="Combined-Shape" fill="#FFFFFF"></path>
                            <path d="M22,40.495389 C22,40.2217932 22.2319336,40 22.5,40 C22.7761424,40 23,40.2157526 23,40.495389 L23,42.504611 C23,42.7782068 22.7680664,43 22.5,43 C22.2238576,43 22,42.7842474 22,42.504611 L22,40.495389 Z M22,14.495389 C22,14.2217932 22.2319336,14 22.5,14 C22.7761424,14 23,14.2157526 23,14.495389 L23,16.504611 C23,16.7782068 22.7680664,17 22.5,17 C22.2238576,17 22,16.7842474 22,16.504611 L22,14.495389 Z M8,28.5 C8,28.2238576 8.2157526,28 8.49538898,28 L10.504611,28 C10.7782068,28 11,28.2319336 11,28.5 C11,28.7761424 10.7842474,29 10.504611,29 L8.49538898,29 C8.2217932,29 8,28.7680664 8,28.5 Z M34,28.5 C34,28.2238576 34.2157526,28 34.495389,28 L36.504611,28 C36.7782068,28 37,28.2319336 37,28.5 C37,28.7761424 36.7842474,29 36.504611,29 L34.495389,29 C34.2217932,29 34,28.7680664 34,28.5 Z" id="Dashes" fill="#FFFFFF"></path>
                            <path d="M22,40.495389 C22,40.2217932 22.2319336,40 22.5,40 C22.7761424,40 23,40.2157526 23,40.495389 L23,42.504611 C23,42.7782068 22.7680664,43 22.5,43 C22.2238576,43 22,42.7842474 22,42.504611 L22,40.495389 Z M22,14.495389 C22,14.2217932 22.2319336,14 22.5,14 C22.7761424,14 23,14.2157526 23,14.495389 L23,16.504611 C23,16.7782068 22.7680664,17 22.5,17 C22.2238576,17 22,16.7842474 22,16.504611 L22,14.495389 Z M8,28.5 C8,28.2238576 8.2157526,28 8.49538898,28 L10.504611,28 C10.7782068,28 11,28.2319336 11,28.5 C11,28.7761424 10.7842474,29 10.504611,29 L8.49538898,29 C8.2217932,29 8,28.7680664 8,28.5 Z M34,28.5 C34,28.2238576 34.2157526,28 34.495389,28 L36.504611,28 C36.7782068,28 37,28.2319336 37,28.5 C37,28.7761424 36.7842474,29 36.504611,29 L34.495389,29 C34.2217932,29 34,28.7680664 34,28.5 Z" id="Dashes" fill="#FFFFFF" transform="translate(22.500000, 28.500000) rotate(-300.000000) translate(-22.500000, -28.500000) "></path>
                            <path d="M22,40.495389 C22,40.2217932 22.2319336,40 22.5,40 C22.7761424,40 23,40.2157526 23,40.495389 L23,42.504611 C23,42.7782068 22.7680664,43 22.5,43 C22.2238576,43 22,42.7842474 22,42.504611 L22,40.495389 Z M22,14.495389 C22,14.2217932 22.2319336,14 22.5,14 C22.7761424,14 23,14.2157526 23,14.495389 L23,16.504611 C23,16.7782068 22.7680664,17 22.5,17 C22.2238576,17 22,16.7842474 22,16.504611 L22,14.495389 Z M8,28.5 C8,28.2238576 8.2157526,28 8.49538898,28 L10.504611,28 C10.7782068,28 11,28.2319336 11,28.5 C11,28.7761424 10.7842474,29 10.504611,29 L8.49538898,29 C8.2217932,29 8,28.7680664 8,28.5 Z M34,28.5 C34,28.2238576 34.2157526,28 34.495389,28 L36.504611,28 C36.7782068,28 37,28.2319336 37,28.5 C37,28.7761424 36.7842474,29 36.504611,29 L34.495389,29 C34.2217932,29 34,28.7680664 34,28.5 Z" id="Dashes" fill="#FFFFFF" transform="translate(22.500000, 28.500000) rotate(30.000000) translate(-22.500000, -28.500000) "></path>
                            <circle id="Base" stroke="#FFFFFF" stroke-width="2" cx="22.5" cy="28.5" r="14.5"></circle>
                            <path d="M33.532631,9.46212172 C30.2893606,7.57855544 26.5206353,6.5 22.5,6.5 C10.3497355,6.5 0.5,16.3497355 0.5,28.5 C0.5,40.6502645 10.3497355,50.5 22.5,50.5 L22.5,50.5" id="Oval-85" stroke="#FFFFFF" stroke-dasharray="4"></path>
                            <text id="6" font-family="WorkSans-Regular, Work Sans" font-size="8" font-weight="normal" letter-spacing="0.256000012" fill="#FFFFFF">
                                <tspan x="20" y="58">6</tspan>
                            </text>
                            <text id="13" font-family="WorkSans-Regular, Work Sans" font-size="8" font-weight="normal" letter-spacing="0.256000012" fill="#FFFFFF">
                                <tspan x="33" y="7">13</tspan>
                            </text>
                        </g>
                        <g id="Clock-7" transform="translate(618.000000, 3.000000)">
                            <path d="M29.6841084,33.6185806 L26.9732848,37.8542425 C28.3190053,38.5849577 29.8610335,39 31.5,39 C33.3102359,39 35.002215,38.493683 36.4420477,37.6149389 L33.9213287,33.2937063 C33.2222527,33.7408194 32.3913938,34 31.5,34 C30.8538492,34 30.2395063,33.8638144 29.6841084,33.6185806 L26.9732848,37.8542425 C24.0110474,36.2457719 22,33.1077386 22,29.5 C22,26.0207224 23.8703821,22.9782959 26.6605208,21.3233462 L29.2821978,25.5835714 C27.9194085,26.3569564 27,27.8211085 27,29.5 C27,31.3391306 28.1032868,32.9205747 29.6841084,33.6185806 Z" id="Combined-Shape" fill="#FFFFFF"></path>
                            <path d="M31,41.495389 C31,41.2217932 31.2319336,41 31.5,41 C31.7761424,41 32,41.2157526 32,41.495389 L32,43.504611 C32,43.7782068 31.7680664,44 31.5,44 C31.2238576,44 31,43.7842474 31,43.504611 L31,41.495389 Z M31,15.495389 C31,15.2217932 31.2319336,15 31.5,15 C31.7761424,15 32,15.2157526 32,15.495389 L32,17.504611 C32,17.7782068 31.7680664,18 31.5,18 C31.2238576,18 31,17.7842474 31,17.504611 L31,15.495389 Z M17,29.5 C17,29.2238576 17.2157526,29 17.495389,29 L19.504611,29 C19.7782068,29 20,29.2319336 20,29.5 C20,29.7761424 19.7842474,30 19.504611,30 L17.495389,30 C17.2217932,30 17,29.7680664 17,29.5 Z M43,29.5 C43,29.2238576 43.2157526,29 43.495389,29 L45.504611,29 C45.7782068,29 46,29.2319336 46,29.5 C46,29.7761424 45.7842474,30 45.504611,30 L43.495389,30 C43.2217932,30 43,29.7680664 43,29.5 Z" id="Dashes" fill="#FFFFFF"></path>
                            <path d="M31,41.495389 C31,41.2217932 31.2319336,41 31.5,41 C31.7761424,41 32,41.2157526 32,41.495389 L32,43.504611 C32,43.7782068 31.7680664,44 31.5,44 C31.2238576,44 31,43.7842474 31,43.504611 L31,41.495389 Z M31,15.495389 C31,15.2217932 31.2319336,15 31.5,15 C31.7761424,15 32,15.2157526 32,15.495389 L32,17.504611 C32,17.7782068 31.7680664,18 31.5,18 C31.2238576,18 31,17.7842474 31,17.504611 L31,15.495389 Z M17,29.5 C17,29.2238576 17.2157526,29 17.495389,29 L19.504611,29 C19.7782068,29 20,29.2319336 20,29.5 C20,29.7761424 19.7842474,30 19.504611,30 L17.495389,30 C17.2217932,30 17,29.7680664 17,29.5 Z M43,29.5 C43,29.2238576 43.2157526,29 43.495389,29 L45.504611,29 C45.7782068,29 46,29.2319336 46,29.5 C46,29.7761424 45.7842474,30 45.504611,30 L43.495389,30 C43.2217932,30 43,29.7680664 43,29.5 Z" id="Dashes" fill="#FFFFFF" transform="translate(31.500000, 29.500000) rotate(-300.000000) translate(-31.500000, -29.500000) "></path>
                            <path d="M31,41.495389 C31,41.2217932 31.2319336,41 31.5,41 C31.7761424,41 32,41.2157526 32,41.495389 L32,43.504611 C32,43.7782068 31.7680664,44 31.5,44 C31.2238576,44 31,43.7842474 31,43.504611 L31,41.495389 Z M31,15.495389 C31,15.2217932 31.2319336,15 31.5,15 C31.7761424,15 32,15.2157526 32,15.495389 L32,17.504611 C32,17.7782068 31.7680664,18 31.5,18 C31.2238576,18 31,17.7842474 31,17.504611 L31,15.495389 Z M17,29.5 C17,29.2238576 17.2157526,29 17.495389,29 L19.504611,29 C19.7782068,29 20,29.2319336 20,29.5 C20,29.7761424 19.7842474,30 19.504611,30 L17.495389,30 C17.2217932,30 17,29.7680664 17,29.5 Z M43,29.5 C43,29.2238576 43.2157526,29 43.495389,29 L45.504611,29 C45.7782068,29 46,29.2319336 46,29.5 C46,29.7761424 45.7842474,30 45.504611,30 L43.495389,30 C43.2217932,30 43,29.7680664 43,29.5 Z" id="Dashes" fill="#FFFFFF" transform="translate(31.500000, 29.500000) rotate(30.000000) translate(-31.500000, -29.500000) "></path>
                            <circle id="Base" stroke="#FFFFFF" stroke-width="2" cx="31.5" cy="29.5" r="14.5"></circle>
                            <path d="M20.56748,10.4043327 C13.9544697,14.1985386 9.5,21.3290707 9.5,29.5 C9.5,37.6118595 13.8902975,44.6983102 20.4243979,48.5128573 L20.4243979,48.5128573" id="Oval-88" stroke="#FFFFFF" stroke-dasharray="4"></path>
                            <path d="M15.4357527,38.1678073 C18.5210785,43.873882 24.5578813,47.75 31.5,47.75 C34.7253821,47.75 37.7553399,46.9132894 40.3846595,45.4450824" id="Oval-88" stroke="#FFFFFF" stroke-dasharray="4"></path>
                            <text id="7" font-family="WorkSans-Regular, Work Sans" font-size="8" font-weight="normal" letter-spacing="0.256000012" fill="#FFFFFF">
                                <tspan x="16" y="56">7</tspan>
                            </text>
                            <text id="11" font-family="WorkSans-Regular, Work Sans" font-size="8" font-weight="normal" letter-spacing="0.256000012" fill="#FFFFFF">
                                <tspan x="13" y="7">11</tspan>
                            </text>
                            <text id="20" font-family="WorkSans-Regular, Work Sans" font-size="8" font-weight="normal" letter-spacing="0.256000012" fill="#FFFFFF">
                                <tspan x="0" y="48">20</tspan>
                            </text>
                            <text id="17" font-family="WorkSans-Regular, Work Sans" font-size="8" font-weight="normal" letter-spacing="0.256000012" fill="#FFFFFF">
                                <tspan x="41" y="57">17</tspan>
                            </text>
                        </g>
                    </g>
                </g>
                <g id="Description-Lines" transform="translate(14.000000, 0.000000)">
                    <g id="working-hours" transform="translate(0.000000, 2.000000)">
                        <path d="M336,224.089844 C336,173.881251 113,185.614519 113,125" id="Path" stroke="#FFFFFF" stroke-width="2" stroke-dasharray="8" opacity="0.5"></path>
                        <path d="M478,0.45703125 C478,74.5 112.5,38.6410389 112.5,101.013991" id="Path" stroke="#9A949A" stroke-width="2" stroke-dasharray="8"></path>
                        <rect id="Base" fill="#9A949A" x="0" y="101" width="225" height="24" rx="4"></rect>
                        <text id="Changing-the-working" font-family="WorkSans-SemiBold, Work Sans" font-size="14" font-weight="500" letter-spacing="0.448000014" fill="#362A35">
                            <tspan x="10.6739998" y="118">Changing the working hours</tspan>
                        </text>
                    </g>
                    <g id="ventilation" transform="translate(342.000000, 2.000000)">
                        <path d="M411,224.089844 C411,172.747269 85.5,186.983523 85.5,125" id="Path" stroke="#FFFFFF" stroke-width="2" stroke-dasharray="8" opacity="0.5"></path>
                        <path d="M136,0.45703125 C136,74 85.5,50.6701965 85.5,100.883363" id="Path" stroke="#9A949A" stroke-width="2" stroke-dasharray="8"></path>
                        <rect id="Base" fill="#9A949A" x="0" y="101" width="171" height="24" rx="4"></rect>
                        <text id="Increased-ventilatio" font-family="WorkSans-SemiBold, Work Sans" font-size="14" font-weight="500" letter-spacing="0.448000014" fill="#362A35">
                            <tspan x="8" y="118">Increased ventilation</tspan>
                        </text>
                    </g>
                    <g id="solar-blinds" transform="translate(478.000000, 1.000000)">
                        <path d="M378,225.089844 C378,134.907808 200.5,187.983523 200.5,126" id="Path" stroke="#FFFFFF" stroke-width="2" stroke-dasharray="8" opacity="0.5"></path>
                        <path d="M0,0 C0,93 200.5,50.9416809 200.5,101.883363" id="Path" stroke="#9A949A" stroke-width="2" stroke-dasharray="8"></path>
                        <rect id="Base" fill="#9A949A" x="151" y="102" width="99" height="24" rx="4"></rect>
                        <text id="Solar-blinds" font-family="WorkSans-SemiBold, Work Sans" font-size="14" font-weight="500" letter-spacing="0.448000014" fill="#362A35">
                            <tspan x="157" y="119">Solar blinds</tspan>
                        </text>
                    </g>
                    <g id="air-conditioning" transform="translate(478.000000, 2.000000)">
                        <path d="M481,224.089844 C481,186.686711 433.5,185.516407 433.5,123.532884" id="Path" stroke="#FFFFFF" stroke-width="2" stroke-dasharray="8" opacity="0.5"></path>
                        <path d="M5.68434189e-14,0.45703125 C5.68434189e-14,67.5 433.5,25 433.5,100.883363" id="Path" stroke="#9A949A" stroke-width="2" stroke-dasharray="8"></path>
                        <rect id="Base" fill="#9A949A" x="367" y="101" width="133" height="24" rx="4"></rect>
                        <text id="Air-conditioning" font-family="WorkSans-SemiBold, Work Sans" font-size="14" font-weight="500" letter-spacing="0.448000014" fill="#362A35">
                            <tspan x="376" y="118">Air conditioning</tspan>
                        </text>
                    </g>
                    <path d="M378,1 L578,1" id="Line" stroke="#FFFFFF" stroke-width="2" stroke-linecap="square" opacity="0.5"></path>
                </g>
            </g>
        </g>
    </g>
</svg>