<?xml version="1.0" encoding="UTF-8" standalone="no"?>
<svg width="480px" height="431px" viewBox="0 0 480 431" version="1.1" xmlns="http://www.w3.org/2000/svg" xmlns:xlink="http://www.w3.org/1999/xlink">
    <!-- Generator: Sketch 3.8.3 (29802) - http://www.bohemiancoding.com/sketch -->
    <title>map-selection</title>
    <desc>Created with Sketch.</desc>
    <defs>
        <rect id="path-1" x="0" y="0" width="400" height="400"></rect>
        <mask id="mask-2" maskContentUnits="userSpaceOnUse" maskUnits="objectBoundingBox" x="0" y="0" width="400" height="400" fill="white">
            <use xlink:href="#path-1"></use>
        </mask>
    </defs>
    <g id="_Exports" stroke="none" stroke-width="1" fill="none" fill-rule="evenodd">
        <g id="map-selection">
            <g id="map" transform="translate(80.000000, 0.000000)">
                <g id="map-base" opacity="0.25">
                    <path d="M76.8419006,400 L75.7236715,399.144667 L75.6336758,384.888292 L104.642282,377.925179 L116.821697,358.326416 L137.070724,357.516054 L130.29105,322.490394 L141.390517,314.056623 L192.328069,304.482342 L204.567481,308.594181 L207.237353,316.757831 L209.277255,329.093346 L204.537483,332.514876 L205.887418,344.160082 L216.746896,355.114981 L216.056929,366.069879 L220.136733,370.181717 L220.136733,400 L76.8419006,400 Z M30.0198604,400 L32.7057382,395.57307 L57.8445305,380.506333 L70.7439107,345.570713 L86.3731598,338.037345 L93.1528341,322.970608 L127.801169,322.970608 L133.950874,355.144994 L114.931788,355.835303 L102.692376,375.704186 L73.4737796,382.547246 L73.0741634,400 L30.0198604,400 Z M346.940588,400 L346.220676,354.964913 L332.571332,352.984028 L326.121641,344.340163 L309.142457,344.340163 L300.562869,351.60341 L299.962898,355.144994 L305.242644,360.247275 L306.412588,365.349557 L294.323169,370.451838 L271.104285,359.827087 L264.654594,349.802605 L241.045729,342.929532 L231.476189,358.656564 L229.136301,358.656564 L227.756367,369.461395 L223.076592,370.241744 L222.968197,400 L346.940588,400 Z M400,356.152655 L393.198419,352.383759 L388.908625,352.383759 L379.729066,360.067195 L372.319422,359.857101 L356.720171,355.535168 L348.710556,355.325074 L349.292206,400 L400,400 L400,356.152655 Z M3.0281333e-14,386.784123 L0.93726451,384.648185 L2.28705943e-14,384.32982 L2.84217094e-14,386.784123 Z M2.85327317e-14,13.4264613 L9.00687681,15.002913 L16.5365151,19.2648185 L24.9961086,19.6249795 L39.5154111,12.3917455 L48.8923708,2.60902411e-14 L2.84217094e-14,2.84217094e-14 L2.84217094e-14,13.4264613 Z M352.408415,1.55431223e-14 L359.150055,15.8432887 L343.370813,40.8744804 L342.290865,46.5170032 L350.30048,52.1595261 L343.070827,56.9316597 L338.271058,57.0217 L339.171014,79.0815632 L345.800696,88.4757634 L345.890692,97.5998429 L354.380284,98.3801918 L367.36966,103.332406 L381.109,122.24086 L381.258992,127.223088 L376.789207,134.87651 L387.048714,134.306255 L397.038234,137.187543 L400,141.382164 L400,2.84217094e-14 L352.408415,2.84217094e-14 Z M400,250.854162 L398.568161,250.818348 L382.038955,262.523582 L366.559699,263.243904 L365.149766,272.097863 L347.570611,272.097863 L340.550948,278.490721 L340.550948,282.032305 L344.780745,285.573888 L344.780745,289.475633 L343.01083,294.097699 L344.780745,297.999444 L350.420474,295.178182 L356.060203,301.210879 L354.650271,305.472785 L352.550372,308.32406 L355.70022,311.865643 L371.179477,315.047066 L382.068953,310.424999 L382.068953,303.701993 L387.3487,304.752463 L400,312.191033 L400,250.854162 Z M400,328.994793 L399.348123,328.973292 L395.298318,326.122017 L395.838292,320.809642 L400,320.538092 L400,328.994793 Z M224.030677,3.19744231e-14 L223.646565,1.6769548 L212.637094,1.10669983 L211.693863,3.65818487e-14 L206.962698,2.84217094e-14 L202.197595,5.54868589 L197.787807,8.88017543 L196.67786,16.653651 L192.838045,18.8746441 L182.93852,21.0956371 L177.988758,36.6425883 L181.2886,62.1539947 L185.128415,73.7992014 L189.538203,78.2411874 L199.437728,77.7009459 L213.74704,63.8347462 L219.236777,54.4105325 L220.886697,68.2767322 L230.246248,51.6492979 L230.786222,5.03845776 L238.405856,0.236310673 L238.426802,2.94625435e-14 L224.030677,2.84217094e-14 Z M284.241898,2.00950367e-14 L275.36408,12.2416784 L269.304371,12.7819199 L261.054767,26.6481197 L261.594742,39.9740778 L275.904054,50.508788 L274.794107,56.6015121 L269.304371,64.9152293 L261.054767,72.1184499 L261.594742,95.9791183 L248.93535,100.421104 L244.525562,109.845318 L238.465853,109.845318 L235.166011,93.2178837 L221.396673,72.0884365 L232.706129,53.1499689 L233.486092,6.35904821 L241.285717,2.06712925 L241.431642,2.95319325e-14 L284.241898,2.84217094e-14 Z M301.927025,4.6629367e-15 L290.243365,12.7819199 L286.943524,23.8868851 L291.353312,39.9740778 L306.202598,51.079043 L326.001647,41.6548293 L341.96088,39.4338363 L356.810167,15.5731679 L350.236493,2.7533531e-14 L301.927025,2.84217094e-14 Z M400,225.697116 L395.898289,225.697116 L388.398649,213.991883 L393.948383,206.668609 L387.648685,202.286649 L380.869011,201.056099 L369.01958,214.712205 L359.960016,212.071024 L367.57965,198.384905 L357.17015,184.488692 L349.910498,182.057605 L343.130824,187.670114 L318.891989,186.469577 L315.11217,184.068504 L315.052173,176.595163 L323.091787,159.637581 L320.931891,150.393447 L329.631473,145.50126 L340.370957,146.041502 L347.780601,149.463031 L370.579505,149.162897 L375.589265,136.767355 L386.71873,136.28714 L395.898289,139.438549 L400,145.228254 L400,225.697116 Z M336.231156,56.9916866 L319.431963,56.3914182 L308.782474,62.9043302 L308.632482,67.7364907 L315.53215,74.2494027 L336.98112,77.8810264 L336.231156,56.9916866 Z M207.657333,308.113966 L224.246536,301.420973 L229.706274,304.962557 L229.916263,309.284489 L227.366386,312.615979 L227.756367,318.528622 L230.306245,319.90924 L230.306245,330.53399 L227.366386,335.456191 L227.756367,338.6076 L238.885833,342.539358 L229.916263,356.495598 L226.406432,356.285504 L225.806461,367.510523 L221.906648,368.110791 L218.576808,365.169476 L219.356771,353.764377 L208.437295,343.139626 L207.057362,333.895493 L212.337108,329.753641 L207.657333,308.113966 Z M7.47695032,335.396164 L4.23710597,339.508002 L7.47695032,343.619841 L12.3667154,341.158741 L7.47695032,335.396164 Z M29.795878,387.349393 L24.5461302,390.380748 L26.9760135,392.841849 L29.795878,387.349393 Z M11.5567543,387.919648 L5.04706706,389.570386 L8.2869114,394.492587 L13.1766765,394.492587 L11.5567543,387.919648 Z M121.291482,73.2589598 L115.801746,81.572677 L117.991641,84.9041665 L130.651033,84.9041665 L130.651033,90.4566491 L127.351191,94.8986352 L129.541086,106.543842 L136.680743,120.410042 L142.170479,133.165745 L150.960057,136.497234 L154.799872,143.160213 L154.259898,149.252938 L148.770162,152.584427 L148.230188,155.345662 L152.070004,157.566655 L148.770162,162.008641 L141.060532,165.34013 L126.211246,163.689392 L103.082357,174.224102 L95.3727275,170.352371 L117.39167,157.596668 L114.631802,155.94593 L103.082357,154.835434 L110.222014,144.300723 L111.331961,135.416751 L120.691511,134.306255 L119.04159,117.108565 L108.032119,116.568324 L104.732278,112.696593 L105.272252,99.9408896 L98.6725689,100.481131 L105.272252,78.3012143 L117.39167,69.4172422 L121.291482,73.2589598 Z M98.192592,110.445586 L88.2930676,111.556083 L87.7530935,120.440055 L94.3527765,124.882041 L101.492433,123.231303 L104.252301,118.249075 L98.192592,110.445586 Z M101.462435,125.692403 L98.732566,143.700455 L74.5237291,152.584427 L66.8140995,152.584427 L61.3243633,148.712696 L61.3243633,145.381206 L73.443781,137.607731 L70.1439395,130.944752 L70.6839136,121.520538 L81.1534106,122.06078 L85.95318,110.775734 L85.3232103,120.800216 L93.4528197,127.253101 L101.462435,125.692403 Z M337.131112,80.1320329 L316.5821,76.8005433 L317.032078,88.2956829 L336.081163,99.9408896 L343.880788,97.6598697 L343.43081,88.8959513 L337.131112,80.1320329 Z M303.202742,68.9370275 L298.552966,68.7869604 L295.853096,71.5181815 L297.803002,74.3994698 L302.452779,74.699604 L304.852663,71.2180473 L303.202742,68.9370275 Z M302.752764,81.1825025 L298.25298,80.7323012 L290.153369,90.4266357 L290.153369,94.958662 L292.85324,96.0091317 L298.102988,96.1591988 L306.80257,89.0460184 L308.002512,86.6149314 L302.752764,81.1825025 Z M315.352159,90.1265015 L308.902469,89.9764344 L300.052894,98.4402186 L292.553254,98.4402186 L293.003233,109.034956 L288.503449,117.348673 L304.70267,117.49874 L309.352447,116.898472 L314.002224,122.510981 L324.651712,122.06078 L334.851222,109.064969 L334.251251,101.35152 L315.352159,90.1265015 Z M314.90218,124.912054 L319.401964,132.325369 L317.602051,138.238013 L317.902036,142.920106 L319.551957,148.532615 L328.85151,143.250254 L340.400955,143.550388 L348.500566,146.881877 L369.049579,146.881877 L375.049291,132.50545 L378.649118,127.073021 L378.649118,123.441397 L365.749737,105.283278 L354.350285,100.751252 L345.050732,99.7007822 L336.951121,102.281936 L337.251107,110.445586 L326.001647,124.671947 L314.90218,124.912054 Z M317.302065,150.333421 L319.851943,155.015514 L320.451914,159.997742 L318.352015,164.829902 L313.552245,174.074035 L309.50244,175.904854 L304.252692,173.623834 L301.102843,173.773901 L293.453211,176.655189 L284.753629,174.074035 L270.654306,164.079567 L256.854969,156.666252 L251.305236,148.202468 L250.255286,128.243544 L261.054767,118.849344 L275.15409,114.16725 L280.403838,113.566982 L278.303939,117.798874 L279.653874,119.449612 L303.382734,119.899813 L308.482489,119.749746 L316.882085,132.625503 L314.782186,137.907865 L315.682143,144.120643 L317.302065,150.333421 Z M128.011159,241.094001 L89.7929955,241.094001 L82.0833659,237.612444 L78.3635446,237.882565 L73.8637608,247.246752 L75.4536844,256.881059 L90.0629826,258.231663 L91.9228932,264.384414 L85.5631987,300.25045 L85.8331858,306.673322 L96.1826885,312.285831 L108.122115,313.096193 L132.000968,307.213563 L143.670407,292.506988 L143.940394,277.530292 L164.6394,258.801918 L165.689349,250.518214 L146.850254,250.248093 L128.011159,241.094001 Z M75.7236715,259.822374 L73.8637608,285.783982 L68.5540159,290.586129 L69.09399,293.527444 L72.8138113,299.680195 L70.4139266,307.18355 L74.4037349,308.534154 L83.7032881,307.453671 L83.163314,299.950316 L89.2530215,265.164763 L87.9330849,260.362616 L75.7236715,259.822374 Z M166.229323,277.740386 L161.459552,279.36111 L162.509502,283.653029 L169.40917,283.653029 L172.319031,280.441593 L166.229323,277.740386 Z M215.606951,266.245246 L207.657333,270.267044 L208.707282,285.783982 L215.066977,286.864465 L219.836748,282.302425 L219.836748,267.59585 L215.606951,266.245246 Z M216.416912,246.976631 L210.567193,252.859261 L210.027219,258.20165 L214.79699,261.142965 L216.6569,260.872844 L217.70685,253.099368 L216.416912,246.976631 Z M164.129424,162.158708 L157.499743,163.779432 L144.24038,178.215887 L140.250571,178.486008 L134.940826,174.734331 L131.490992,175.544693 L128.851119,183.828397 L109.47205,184.368638 L110.012024,188.660557 L123.271387,197.484502 L138.660648,209.790004 L138.390661,224.49658 L130.171056,238.933034 L147.960201,247.486859 L166.019333,248.0271 L171.599065,241.604229 L182.998518,241.874349 L186.178365,244.815665 L197.577817,244.005302 L203.427536,236.501947 L195.987894,227.678002 L195.447919,222.065493 L197.037843,215.912742 L193.318022,210.570353 L186.958327,212.431185 L186.148366,207.629038 L200.21769,192.1121 L200.21769,182.747913 L190.918137,177.405525 L186.148366,176.595163 L164.129424,162.158708 Z M193.198028,130.854711 L179.60868,137.547704 L182.488542,140.158871 L182.788528,146.851864 L179.908666,146.281609 L176.728819,141.329395 L169.139183,153.364776 L180.808623,155.795863 L185.158414,160.387916 L187.468303,160.447943 L188.998229,150.0633 L196.347876,146.971918 L193.198028,130.854711 Z M167.75925,155.615782 L165.839342,160.417929 L186.47835,174.044022 L192.418065,175.454653 L192.628055,169.001767 L187.438304,163.179164 L184.258457,163.179164 L179.908666,158.22695 L167.75925,155.615782 Z M196.347876,129.684188 L207.057362,127.94341 L207.057362,120.380028 L216.026931,118.909371 L220.946694,123.861585 L226.136445,124.43184 L234.236056,120.92027 L241.465709,122.961182 L247.825403,128.483651 L248.695361,149.162897 L255.055056,157.626682 L246.685458,158.797205 L232.796125,167.53111 L233.966069,170.442412 L246.385472,182.087618 L245.515514,187.910222 L233.966069,193.732825 L223.256583,194.032959 L220.646709,199.555428 L215.156973,199.555428 L212.547098,193.732825 L203.007556,191.391778 L202.707571,181.787484 L194.60796,176.265015 L195.477918,169.271888 L189.988182,161.708507 L191.428113,151.804078 L198.927752,148.292508 L196.347876,129.684188 Z M213.237065,80.5222073 L200.787663,94.2983668 L200.337685,103.272379 L206.007412,118.068995 L214.886986,116.388243 L213.777039,104.292835 L219.896745,97.4497758 L219.776751,92.0773737 L215.456958,80.8823683 L213.237065,80.5222073 Z M227.246392,104.953131 L224.456526,104.833077 L220.796702,108.19458 L221.24668,113.446928 L229.916263,113.687036 L230.366242,107.744379 L227.246392,104.953131 Z M278.393934,76.5304225 L272.064239,81.5426636 L275.244086,88.8959513 L280.853816,83.433509 L278.393934,76.5304225 Z M201.657621,194.21304 L188.57825,208.139266 L188.848237,209.549897 L194.217979,207.869145 L199.047747,214.592151 L207.207354,211.710863 L212.847084,216.092822 L215.156973,214.772232 L222.116638,203.847347 L220.346723,202.166596 L213.477053,201.986515 L210.147213,195.173469 L201.657621,194.21304 Z M248.215384,180.676988 L257.124956,180.676988 L261.504746,180.676988 L268.614404,185.749255 L281.783772,174.794357 L269.004386,165.670278 L256.344994,159.54754 L247.67541,161.108238 L235.915975,168.67162 L248.215384,180.676988 Z M270.444316,187.46002 L272.514217,189.290839 L272.784204,192.412234 L295.673104,191.902006 L312.592291,184.608745 L312.322304,177.195431 L309.08246,178.636075 L304.432683,176.144961 L301.58282,176.024908 L294.083181,179.026249 L283.883671,176.565149 L270.444316,187.46002 Z M224.816508,196.434033 L222.866602,200.485844 L224.546521,203.367133 L231.536186,201.926488 L237.4759,201.926488 L243.92559,207.388931 L257.634932,204.897817 L267.714447,198.895133 L270.294324,194.843321 L269.904342,189.620986 L260.844778,182.837954 L248.695361,182.958007 L247.67541,189.861094 L234.896024,196.103885 L224.816508,196.434033 Z M273.144187,194.873335 L269.664354,200.335777 L269.934341,208.679508 L275.484074,211.530783 L292.553254,212.041011 L316.342111,191.992047 L316.462105,187.550061 L313.882229,186.259484 L296.693055,194.062973 L273.144187,194.873335 Z M267.324466,202.046542 L259.704832,206.608582 L245.485515,209.729977 L248.335379,217.953654 L258.2949,218.073708 L267.474459,210.390273 L267.324466,202.046542 Z M269.784348,211.560796 L259.194857,220.294701 L248.455373,220.294701 L247.165435,227.858083 L252.085198,229.14866 L254.54508,225.487023 L258.414894,228.878539 L261.504746,239.68337 L282.713727,249.587798 L284.813626,247.186725 L263.304659,224.976794 L265.494554,220.924983 L285.923573,220.144634 L287.993473,213.631722 L274.674113,214.021896 L269.784348,211.560796 Z M267.324466,222.905868 L266.21452,224.736687 L286.343552,245.505973 L293.723198,234.641115 L293.453211,230.349196 L287.003521,222.515694 L267.324466,222.905868 Z M199.737713,217.023238 L197.877803,221.735345 L198.387778,226.86764 L205.557434,235.241384 L216.836892,234.851209 L241.735696,263.784146 L257.274949,268.286158 L266.454508,276.960037 L268.644403,296.73888 L273.564166,293.857592 L277.823962,283.082774 L276.774012,275.339312 L284.063662,274.679017 L285.113612,270.297058 L264.564599,260.452656 L245.065536,241.274081 L237.295909,229.808955 L235.406,218.914084 L245.335523,216.543024 L242.785645,209.369816 L236.695938,204.237522 L231.44619,203.997414 L224.126542,206.008313 L217.226873,215.672634 L213.057073,218.433869 L206.607383,214.472098 L199.737713,217.023238 Z M260.244806,295.178182 L255.895015,292.837135 L241.045729,295.178182 L241.555704,299.19998 L254.905063,305.922986 L256.914966,308.113966 L260.424798,308.624194 L260.244806,295.178182 Z M260.754782,317.53818 L255.745023,318.558636 L255.925014,324.111118 L260.424798,325.611789 L262.434701,323.931038 L260.754782,317.53818 Z M345.170726,189.200799 L354.470279,203.5172 L353.690317,211.620823 L357.020157,211.77089 L364.909778,198.414918 L355.430233,186.649658 L350.060491,184.428665 L345.170726,189.200799 Z M319.461961,188.870651 L318.681999,193.312637 L301.312833,207.779105 L315.832136,229.088633 L325.131689,235.601545 L341.870885,235.601545 L347.39062,230.979478 L354.800264,230.019049 L360.319998,233.350538 L370.099529,222.21556 L368.209619,216.633064 L358.280096,214.081923 L351.500422,213.751776 L351.830406,204.207508 L342.830839,190.041174 L319.461961,188.870651 Z M299.572917,209.699964 L293.423212,214.322031 L290.423356,214.322031 L288.383454,220.684875 L295.643106,229.118646 L296.123083,235.811639 L287.123515,248.537329 L288.383454,252.349033 L293.603204,253.309462 L297.713006,247.726966 L299.9329,247.576899 L303.712718,251.238536 L315.232165,247.726966 L314.272211,231.339639 L299.572917,209.699964 Z M317.242068,233.260498 L317.722045,248.207181 L322.761803,258.711878 L341.690893,259.042025 L350.210484,253.009328 L358.580082,249.677839 L356.54018,240.133571 L358.430089,235.03129 L354.170294,232.810297 L348.320575,233.290512 L343.730795,237.912578 L324.471721,238.062645 L317.242068,233.260498 Z M294.983137,255.380388 L294.983137,269.216574 L298.942947,276.689916 L301.79281,276.359768 L306.682575,267.445783 L303.832712,263.453998 L302.722766,253.579583 L298.942947,250.068013 L294.983137,255.380388 Z M315.682143,250.12804 L305.572629,253.459529 L306.052606,262.043367 L308.422492,265.074723 L320.421915,259.492227 L315.682143,250.12804 Z M303.05275,278.910909 L302.722766,282.902694 L316.612098,289.89582 L323.24178,292.446961 L319.761947,296.108598 L312.022319,296.888947 L310.912372,300.400517 L313.582244,306.433214 L322.251827,311.055281 L326.031646,311.385429 L326.511623,301.030799 L332.18135,294.187739 L316.702094,275.879554 L318.741996,269.666776 L322.371822,269.516709 L327.891556,273.958695 L331.371389,272.217916 L332.481336,266.005139 L348.740555,266.155206 L349.370524,256.610938 L342.59085,261.383072 L322.701806,260.902857 L309.772427,267.59585 L303.05275,278.910909 Z M351.980399,255.200308 L351.500422,265.855072 L360.799975,263.003797 L365.059771,260.152522 L363.799831,255.530455 L359.390043,252.018885 L351.980399,255.200308 Z M333.201301,317.898341 L338.091066,318.048408 L340.130968,321.079763 L347.240627,321.079763 L351.980399,319.338985 L353.570323,321.259844 L350.420474,325.401695 L336.531141,325.88191 L334.011262,322.550421 L331.341391,320.959709 L333.201301,317.898341 Z" id="map" fill="#FFFFFF"></path>
                    <use id="border" stroke="#FFFFFF" mask="url(#mask-2)" stroke-width="4" xlink:href="#path-1"></use>
                </g>
                <circle id="london-dot" fill="#1EEEE1" cx="140" cy="156" r="6"></circle>
                <circle id="antwerp-dot" fill="#1EEEE1" cx="175" cy="162" r="6"></circle>
                <circle id="bilbao-dot" fill="#1EEEE1" cx="120" cy="242" r="6"></circle>
            </g>
            <polyline id="Arrow" stroke-opacity="0.5" stroke="#FFFFFF" points="30 155 0 200.000001 30 245"></polyline>
            <text id="Select-a-city-to-vie" font-family="WorkSans-Medium, Work Sans" font-size="10" font-weight="400" letter-spacing="0.319999993" fill="#FFFFFF">
                <tspan x="140.27" y="429">Select a city to view the damage and adverted losses</tspan>
            </text>
        </g>
    </g>
</svg>