<?xml version="1.0" encoding="UTF-8" standalone="no"?>
<svg width="1440px" height="240px" viewBox="0 0 1440 240" version="1.1" xmlns="http://www.w3.org/2000/svg" xmlns:xlink="http://www.w3.org/1999/xlink">
    <!-- Generator: Sketch 3.8.3 (29802) - http://www.bohemiancoding.com/sketch -->
    <title>section2-bottom</title>
    <desc>Created with Sketch.</desc>
    <defs></defs>
    <g id="_Exports" stroke="none" stroke-width="1" fill="none" fill-rule="evenodd">
        <g id="section2-bottom" fill="#32434A">
            <path d="M0,60 L1440,60 L1440,0 L0,0 L0,60 Z M420,30 L450,30 L450,60 L420,60 L420,30 Z M540,0 L570,0 L570,30 L540,30 L540,0 Z M180,30 L210,30 L210,60 L180,60 L180,30 Z M90,30 L120,30 L120,60 L90,60 L90,30 Z M1050,30 L1080,30 L1080,60 L1050,60 L1050,30 Z M1350,30 L1380,30 L1380,60 L1350,60 L1350,30 Z M0,60 L30,60 L30,90 L0,90 L0,60 Z M30,90 L60,90 L60,120 L30,120 L30,90 Z M60,60 L90,60 L90,90 L60,90 L60,60 Z M60,90 L90,90 L90,120 L60,120 L60,90 Z M60,120 L90,120 L90,150 L60,150 L60,120 Z M1260,180 L1290,180 L1290,210 L1260,210 L1260,180 Z M90,60 L120,60 L120,90 L90,90 L90,60 Z M120,90 L150,90 L150,120 L120,120 L120,90 Z M150,60 L180,60 L180,90 L150,90 L150,60 Z M180,120 L210,120 L210,150 L180,150 L180,120 Z M240,90 L270,90 L270,120 L240,120 L240,90 Z M270,60 L300,60 L300,90 L270,90 L270,60 Z M330,60 L360,60 L360,90 L330,90 L330,60 Z M420,60 L450,60 L450,90 L420,90 L420,60 Z M480,60 L510,60 L510,90 L480,90 L480,60 Z M540,60 L570,60 L570,90 L540,90 L540,60 Z M570,60 L600,60 L600,90 L570,90 L570,60 Z M660,60 L690,60 L690,90 L660,90 L660,60 Z M510,90 L540,90 L540,120 L510,120 L510,90 Z M630,120 L660,120 L660,150 L630,150 L630,120 Z M690,90 L720,90 L720,120 L690,120 L690,90 Z M720,120 L750,120 L750,150 L720,150 L720,120 Z M930,90 L960,90 L960,120 L930,120 L930,90 Z M990,120 L1020,120 L1020,150 L990,150 L990,120 Z M1050,90 L1080,90 L1080,120 L1050,120 L1050,90 Z M1020,90 L1050,90 L1050,120 L1020,120 L1020,90 Z M810,90 L840,90 L840,120 L810,120 L810,90 Z M870,90 L900,90 L900,120 L870,120 L870,90 Z M960,60 L990,60 L990,90 L960,90 L960,60 Z M1200,90 L1230,90 L1230,120 L1200,120 L1200,90 Z M1170,120 L1200,120 L1200,150 L1170,150 L1170,120 Z M1230,150 L1260,150 L1260,180 L1230,180 L1230,150 Z M1260,90 L1290,90 L1290,120 L1260,120 L1260,90 Z M1260,120 L1290,120 L1290,150 L1260,150 L1260,120 Z M1290,120 L1320,120 L1320,150 L1290,150 L1290,120 Z M1350,90 L1380,90 L1380,120 L1350,120 L1350,90 Z M1380,120 L1410,120 L1410,150 L1380,150 L1380,120 Z M570,150 L600,150 L600,180 L570,180 L570,150 Z M1410,90 L1440,90 L1440,120 L1410,120 L1410,90 Z M1320,150 L1350,150 L1350,180 L1320,180 L1320,150 Z M780,120 L810,120 L810,150 L780,150 L780,120 Z M480,120 L510,120 L510,150 L480,150 L480,120 Z M1080,120 L1110,120 L1110,150 L1080,150 L1080,120 Z M390,120 L420,120 L420,150 L390,150 L390,120 Z M360,90 L390,90 L390,120 L360,120 L360,90 Z M390,90 L420,90 L420,120 L390,120 L390,90 Z M300,120 L330,120 L330,150 L300,150 L300,120 Z M210,180 L240,180 L240,210 L210,210 L210,180 Z M90,150 L120,150 L120,180 L90,180 L90,150 Z M270,150 L300,150 L300,180 L270,180 L270,150 Z M0,210 L30,210 L30,240 L0,240 L0,210 Z M690,60 L720,60 L720,90 L690,90 L690,60 Z M720,60 L750,60 L750,90 L720,90 L720,60 Z M750,60 L780,60 L780,90 L750,90 L750,60 Z M810,60 L840,60 L840,90 L810,90 L810,60 Z M900,60 L930,60 L930,90 L900,90 L900,60 Z M1110,60 L1140,60 L1140,90 L1110,90 L1110,60 Z M1170,60 L1200,60 L1200,90 L1170,90 L1170,60 Z M1230,60 L1260,60 L1260,90 L1230,90 L1230,60 Z M1350,60 L1380,60 L1380,90 L1350,90 L1350,60 Z M1410,60 L1440,60 L1440,90 L1410,90 L1410,60 Z M1380,60 L1410,60 L1410,90 L1380,90 L1380,60 Z M1020,60 L1050,60 L1050,90 L1020,90 L1020,60 Z M240,60 L270,60 L270,90 L240,90 L240,60 Z M0,120 L30,120 L30,150 L0,150 L0,120 Z" id="Combined-Shape"></path>
        </g>
    </g>
</svg>